%TF.GenerationSoftware,KiCad,Pcbnew,(5.1.9-0-10_14)*%
%TF.CreationDate,2021-09-01T15:36:42+08:00*%
%TF.ProjectId,KNOB_PANEL,4b4e4f42-5f50-4414-9e45-4c2e6b696361,V1.0*%
%TF.SameCoordinates,Original*%
%TF.FileFunction,Legend,Bot*%
%TF.FilePolarity,Positive*%
%FSLAX46Y46*%
G04 Gerber Fmt 4.6, Leading zero omitted, Abs format (unit mm)*
G04 Created by KiCad (PCBNEW (5.1.9-0-10_14)) date 2021-09-01 15:36:42*
%MOMM*%
%LPD*%
G01*
G04 APERTURE LIST*
%ADD10C,0.150000*%
G04 APERTURE END LIST*
D10*
X191664404Y-98452380D02*
X191664404Y-97452380D01*
X191092976Y-98452380D02*
X191521547Y-97880952D01*
X191092976Y-97452380D02*
X191664404Y-98023809D01*
X190664404Y-98452380D02*
X190664404Y-97452380D01*
X190092976Y-98452380D01*
X190092976Y-97452380D01*
X189426309Y-97452380D02*
X189235833Y-97452380D01*
X189140595Y-97500000D01*
X189045357Y-97595238D01*
X188997738Y-97785714D01*
X188997738Y-98119047D01*
X189045357Y-98309523D01*
X189140595Y-98404761D01*
X189235833Y-98452380D01*
X189426309Y-98452380D01*
X189521547Y-98404761D01*
X189616785Y-98309523D01*
X189664404Y-98119047D01*
X189664404Y-97785714D01*
X189616785Y-97595238D01*
X189521547Y-97500000D01*
X189426309Y-97452380D01*
X188235833Y-97928571D02*
X188092976Y-97976190D01*
X188045357Y-98023809D01*
X187997738Y-98119047D01*
X187997738Y-98261904D01*
X188045357Y-98357142D01*
X188092976Y-98404761D01*
X188188214Y-98452380D01*
X188569166Y-98452380D01*
X188569166Y-97452380D01*
X188235833Y-97452380D01*
X188140595Y-97500000D01*
X188092976Y-97547619D01*
X188045357Y-97642857D01*
X188045357Y-97738095D01*
X188092976Y-97833333D01*
X188140595Y-97880952D01*
X188235833Y-97928571D01*
X188569166Y-97928571D01*
X187807261Y-98547619D02*
X187045357Y-98547619D01*
X186807261Y-98452380D02*
X186807261Y-97452380D01*
X186426309Y-97452380D01*
X186331071Y-97500000D01*
X186283452Y-97547619D01*
X186235833Y-97642857D01*
X186235833Y-97785714D01*
X186283452Y-97880952D01*
X186331071Y-97928571D01*
X186426309Y-97976190D01*
X186807261Y-97976190D01*
X185854880Y-98166666D02*
X185378690Y-98166666D01*
X185950119Y-98452380D02*
X185616785Y-97452380D01*
X185283452Y-98452380D01*
X184950119Y-98452380D02*
X184950119Y-97452380D01*
X184378690Y-98452380D01*
X184378690Y-97452380D01*
X183902500Y-97928571D02*
X183569166Y-97928571D01*
X183426309Y-98452380D02*
X183902500Y-98452380D01*
X183902500Y-97452380D01*
X183426309Y-97452380D01*
X182521547Y-98452380D02*
X182997738Y-98452380D01*
X182997738Y-97452380D01*
X181569166Y-97452380D02*
X181235833Y-98452380D01*
X180902500Y-97452380D01*
X180045357Y-98452380D02*
X180616785Y-98452380D01*
X180331071Y-98452380D02*
X180331071Y-97452380D01*
X180426309Y-97595238D01*
X180521547Y-97690476D01*
X180616785Y-97738095D01*
X179616785Y-98357142D02*
X179569166Y-98404761D01*
X179616785Y-98452380D01*
X179664404Y-98404761D01*
X179616785Y-98357142D01*
X179616785Y-98452380D01*
X178950119Y-97452380D02*
X178854880Y-97452380D01*
X178759642Y-97500000D01*
X178712023Y-97547619D01*
X178664404Y-97642857D01*
X178616785Y-97833333D01*
X178616785Y-98071428D01*
X178664404Y-98261904D01*
X178712023Y-98357142D01*
X178759642Y-98404761D01*
X178854880Y-98452380D01*
X178950119Y-98452380D01*
X179045357Y-98404761D01*
X179092976Y-98357142D01*
X179140595Y-98261904D01*
X179188214Y-98071428D01*
X179188214Y-97833333D01*
X179140595Y-97642857D01*
X179092976Y-97547619D01*
X179045357Y-97500000D01*
X178950119Y-97452380D01*
X177426309Y-98452380D02*
X177426309Y-97452380D01*
X177426309Y-97833333D02*
X177331071Y-97785714D01*
X177140595Y-97785714D01*
X177045357Y-97833333D01*
X176997738Y-97880952D01*
X176950119Y-97976190D01*
X176950119Y-98261904D01*
X176997738Y-98357142D01*
X177045357Y-98404761D01*
X177140595Y-98452380D01*
X177331071Y-98452380D01*
X177426309Y-98404761D01*
X176616785Y-97785714D02*
X176378690Y-98452380D01*
X176140595Y-97785714D02*
X176378690Y-98452380D01*
X176473928Y-98690476D01*
X176521547Y-98738095D01*
X176616785Y-98785714D01*
X175092976Y-97452380D02*
X174426309Y-98452380D01*
X174426309Y-97452380D02*
X175092976Y-98452380D01*
X174045357Y-98452380D02*
X174045357Y-97785714D01*
X174045357Y-97452380D02*
X174092976Y-97500000D01*
X174045357Y-97547619D01*
X173997738Y-97500000D01*
X174045357Y-97452380D01*
X174045357Y-97547619D01*
X173569166Y-98452380D02*
X173569166Y-97452380D01*
X172997738Y-98452380D01*
X172997738Y-97452380D01*
X171997738Y-97500000D02*
X172092976Y-97452380D01*
X172235833Y-97452380D01*
X172378690Y-97500000D01*
X172473928Y-97595238D01*
X172521547Y-97690476D01*
X172569166Y-97880952D01*
X172569166Y-98023809D01*
X172521547Y-98214285D01*
X172473928Y-98309523D01*
X172378690Y-98404761D01*
X172235833Y-98452380D01*
X172140595Y-98452380D01*
X171997738Y-98404761D01*
X171950119Y-98357142D01*
X171950119Y-98023809D01*
X172140595Y-98023809D01*
X170950119Y-98452380D02*
X171283452Y-97976190D01*
X171521547Y-98452380D02*
X171521547Y-97452380D01*
X171140595Y-97452380D01*
X171045357Y-97500000D01*
X170997738Y-97547619D01*
X170950119Y-97642857D01*
X170950119Y-97785714D01*
X170997738Y-97880952D01*
X171045357Y-97928571D01*
X171140595Y-97976190D01*
X171521547Y-97976190D01*
X170616785Y-97452380D02*
X169950119Y-97452380D01*
X170616785Y-98452380D01*
X169950119Y-98452380D01*
M02*
