%TF.GenerationSoftware,KiCad,Pcbnew,(5.1.9-0-10_14)*%
%TF.CreationDate,2021-08-23T19:46:52+08:00*%
%TF.ProjectId,KNOB_MAIN,4b4e4f42-5f4d-4414-994e-2e6b69636164,V1.0*%
%TF.SameCoordinates,Original*%
%TF.FileFunction,Paste,Top*%
%TF.FilePolarity,Positive*%
%FSLAX46Y46*%
G04 Gerber Fmt 4.6, Leading zero omitted, Abs format (unit mm)*
G04 Created by KiCad (PCBNEW (5.1.9-0-10_14)) date 2021-08-23 19:46:52*
%MOMM*%
%LPD*%
G01*
G04 APERTURE LIST*
%ADD10R,1.450000X1.450000*%
%ADD11R,0.400000X0.800000*%
%ADD12R,0.700000X0.700000*%
%ADD13C,0.350000*%
%ADD14R,0.800000X0.400000*%
%ADD15R,4.000000X1.200000*%
%ADD16R,1.500000X2.000000*%
%ADD17R,3.800000X2.000000*%
%ADD18R,1.450000X0.600000*%
%ADD19R,1.450000X0.300000*%
%ADD20R,0.600000X0.700000*%
%ADD21R,0.700000X0.600000*%
G04 APERTURE END LIST*
%TO.C,C5*%
G36*
G01*
X168225000Y-85400000D02*
X168225000Y-85900000D01*
G75*
G02*
X168000000Y-86125000I-225000J0D01*
G01*
X167550000Y-86125000D01*
G75*
G02*
X167325000Y-85900000I0J225000D01*
G01*
X167325000Y-85400000D01*
G75*
G02*
X167550000Y-85175000I225000J0D01*
G01*
X168000000Y-85175000D01*
G75*
G02*
X168225000Y-85400000I0J-225000D01*
G01*
G37*
G36*
G01*
X169775000Y-85400000D02*
X169775000Y-85900000D01*
G75*
G02*
X169550000Y-86125000I-225000J0D01*
G01*
X169100000Y-86125000D01*
G75*
G02*
X168875000Y-85900000I0J225000D01*
G01*
X168875000Y-85400000D01*
G75*
G02*
X169100000Y-85175000I225000J0D01*
G01*
X169550000Y-85175000D01*
G75*
G02*
X169775000Y-85400000I0J-225000D01*
G01*
G37*
%TD*%
%TO.C,C4*%
G36*
G01*
X168225000Y-83850000D02*
X168225000Y-84350000D01*
G75*
G02*
X168000000Y-84575000I-225000J0D01*
G01*
X167550000Y-84575000D01*
G75*
G02*
X167325000Y-84350000I0J225000D01*
G01*
X167325000Y-83850000D01*
G75*
G02*
X167550000Y-83625000I225000J0D01*
G01*
X168000000Y-83625000D01*
G75*
G02*
X168225000Y-83850000I0J-225000D01*
G01*
G37*
G36*
G01*
X169775000Y-83850000D02*
X169775000Y-84350000D01*
G75*
G02*
X169550000Y-84575000I-225000J0D01*
G01*
X169100000Y-84575000D01*
G75*
G02*
X168875000Y-84350000I0J225000D01*
G01*
X168875000Y-83850000D01*
G75*
G02*
X169100000Y-83625000I225000J0D01*
G01*
X169550000Y-83625000D01*
G75*
G02*
X169775000Y-83850000I0J-225000D01*
G01*
G37*
%TD*%
%TO.C,C2*%
G36*
G01*
X162525000Y-94700000D02*
X163475000Y-94700000D01*
G75*
G02*
X163725000Y-94950000I0J-250000D01*
G01*
X163725000Y-95450000D01*
G75*
G02*
X163475000Y-95700000I-250000J0D01*
G01*
X162525000Y-95700000D01*
G75*
G02*
X162275000Y-95450000I0J250000D01*
G01*
X162275000Y-94950000D01*
G75*
G02*
X162525000Y-94700000I250000J0D01*
G01*
G37*
G36*
G01*
X162525000Y-92800000D02*
X163475000Y-92800000D01*
G75*
G02*
X163725000Y-93050000I0J-250000D01*
G01*
X163725000Y-93550000D01*
G75*
G02*
X163475000Y-93800000I-250000J0D01*
G01*
X162525000Y-93800000D01*
G75*
G02*
X162275000Y-93550000I0J250000D01*
G01*
X162275000Y-93050000D01*
G75*
G02*
X162525000Y-92800000I250000J0D01*
G01*
G37*
%TD*%
%TO.C,C1*%
G36*
G01*
X164825000Y-94700000D02*
X165775000Y-94700000D01*
G75*
G02*
X166025000Y-94950000I0J-250000D01*
G01*
X166025000Y-95450000D01*
G75*
G02*
X165775000Y-95700000I-250000J0D01*
G01*
X164825000Y-95700000D01*
G75*
G02*
X164575000Y-95450000I0J250000D01*
G01*
X164575000Y-94950000D01*
G75*
G02*
X164825000Y-94700000I250000J0D01*
G01*
G37*
G36*
G01*
X164825000Y-92800000D02*
X165775000Y-92800000D01*
G75*
G02*
X166025000Y-93050000I0J-250000D01*
G01*
X166025000Y-93550000D01*
G75*
G02*
X165775000Y-93800000I-250000J0D01*
G01*
X164825000Y-93800000D01*
G75*
G02*
X164575000Y-93550000I0J250000D01*
G01*
X164575000Y-93050000D01*
G75*
G02*
X164825000Y-92800000I250000J0D01*
G01*
G37*
%TD*%
D10*
%TO.C,U2*%
X177500000Y-84525000D03*
D11*
X176700000Y-81600000D03*
D12*
X171550000Y-91450000D03*
D10*
X175525000Y-86550000D03*
X179475000Y-86500000D03*
D11*
X180700000Y-81600000D03*
D10*
X179475000Y-88475000D03*
D13*
G36*
X176250000Y-85250000D02*
G01*
X174800000Y-85250000D01*
X174800000Y-84400000D01*
X175400000Y-83800000D01*
X176250000Y-83800000D01*
X176250000Y-85250000D01*
G37*
D10*
X175525000Y-88475000D03*
D11*
X181500000Y-81600000D03*
X178300000Y-81600000D03*
D10*
X179475000Y-84525000D03*
D11*
X182300000Y-81600000D03*
X172700000Y-81600000D03*
D10*
X177500000Y-86500000D03*
D11*
X175100000Y-81600000D03*
X173500000Y-81600000D03*
D12*
X171550000Y-81550000D03*
D11*
X177500000Y-81600000D03*
D12*
X183450000Y-81550000D03*
D11*
X174300000Y-81600000D03*
X175900000Y-81600000D03*
D10*
X177500000Y-88475000D03*
D11*
X179900000Y-81600000D03*
D12*
X183450000Y-91450000D03*
D11*
X179100000Y-81600000D03*
D14*
X183400000Y-82500000D03*
X183400000Y-83300000D03*
X183400000Y-84100000D03*
X183400000Y-84900000D03*
X183400000Y-85700000D03*
X183400000Y-86500000D03*
X183400000Y-87300000D03*
X183400000Y-88100000D03*
X183400000Y-88900000D03*
X183400000Y-89700000D03*
X183400000Y-90500000D03*
D11*
X182300000Y-91400000D03*
X181500000Y-91400000D03*
X180700000Y-91400000D03*
X179900000Y-91400000D03*
X179100000Y-91400000D03*
X178300000Y-91400000D03*
X177500000Y-91400000D03*
X176700000Y-91400000D03*
X175900000Y-91400000D03*
X175100000Y-91400000D03*
X174300000Y-91400000D03*
X173500000Y-91400000D03*
X172700000Y-91400000D03*
D14*
X171600000Y-90500000D03*
X171600000Y-89700000D03*
X171600000Y-88900000D03*
X171600000Y-88100000D03*
X171600000Y-87300000D03*
X171600000Y-86500000D03*
X171600000Y-85700000D03*
X171600000Y-84900000D03*
X171600000Y-84100000D03*
X171600000Y-83300000D03*
X171600000Y-82500000D03*
%TD*%
%TO.C,R4*%
G36*
G01*
X122740000Y-76685000D02*
X122740000Y-76315000D01*
G75*
G02*
X122875000Y-76180000I135000J0D01*
G01*
X123145000Y-76180000D01*
G75*
G02*
X123280000Y-76315000I0J-135000D01*
G01*
X123280000Y-76685000D01*
G75*
G02*
X123145000Y-76820000I-135000J0D01*
G01*
X122875000Y-76820000D01*
G75*
G02*
X122740000Y-76685000I0J135000D01*
G01*
G37*
G36*
G01*
X121720000Y-76685000D02*
X121720000Y-76315000D01*
G75*
G02*
X121855000Y-76180000I135000J0D01*
G01*
X122125000Y-76180000D01*
G75*
G02*
X122260000Y-76315000I0J-135000D01*
G01*
X122260000Y-76685000D01*
G75*
G02*
X122125000Y-76820000I-135000J0D01*
G01*
X121855000Y-76820000D01*
G75*
G02*
X121720000Y-76685000I0J135000D01*
G01*
G37*
%TD*%
%TO.C,D4*%
G36*
G01*
X120350000Y-76756250D02*
X120350000Y-76243750D01*
G75*
G02*
X120568750Y-76025000I218750J0D01*
G01*
X121006250Y-76025000D01*
G75*
G02*
X121225000Y-76243750I0J-218750D01*
G01*
X121225000Y-76756250D01*
G75*
G02*
X121006250Y-76975000I-218750J0D01*
G01*
X120568750Y-76975000D01*
G75*
G02*
X120350000Y-76756250I0J218750D01*
G01*
G37*
G36*
G01*
X118775000Y-76756250D02*
X118775000Y-76243750D01*
G75*
G02*
X118993750Y-76025000I218750J0D01*
G01*
X119431250Y-76025000D01*
G75*
G02*
X119650000Y-76243750I0J-218750D01*
G01*
X119650000Y-76756250D01*
G75*
G02*
X119431250Y-76975000I-218750J0D01*
G01*
X118993750Y-76975000D01*
G75*
G02*
X118775000Y-76756250I0J218750D01*
G01*
G37*
%TD*%
D15*
%TO.C,SW1*%
X111000000Y-87500000D03*
X111000000Y-82500000D03*
X129500000Y-87500000D03*
X129500000Y-85000000D03*
X129500000Y-82500000D03*
%TD*%
D16*
%TO.C,U1*%
X160700000Y-91150000D03*
X165300000Y-91150000D03*
X163000000Y-91150000D03*
D17*
X163000000Y-84850000D03*
%TD*%
%TO.C,R3*%
G36*
G01*
X169240000Y-87335000D02*
X169240000Y-86965000D01*
G75*
G02*
X169375000Y-86830000I135000J0D01*
G01*
X169645000Y-86830000D01*
G75*
G02*
X169780000Y-86965000I0J-135000D01*
G01*
X169780000Y-87335000D01*
G75*
G02*
X169645000Y-87470000I-135000J0D01*
G01*
X169375000Y-87470000D01*
G75*
G02*
X169240000Y-87335000I0J135000D01*
G01*
G37*
G36*
G01*
X168220000Y-87335000D02*
X168220000Y-86965000D01*
G75*
G02*
X168355000Y-86830000I135000J0D01*
G01*
X168625000Y-86830000D01*
G75*
G02*
X168760000Y-86965000I0J-135000D01*
G01*
X168760000Y-87335000D01*
G75*
G02*
X168625000Y-87470000I-135000J0D01*
G01*
X168355000Y-87470000D01*
G75*
G02*
X168220000Y-87335000I0J135000D01*
G01*
G37*
%TD*%
%TO.C,C3*%
G36*
G01*
X168800000Y-87930000D02*
X168800000Y-88270000D01*
G75*
G02*
X168660000Y-88410000I-140000J0D01*
G01*
X168380000Y-88410000D01*
G75*
G02*
X168240000Y-88270000I0J140000D01*
G01*
X168240000Y-87930000D01*
G75*
G02*
X168380000Y-87790000I140000J0D01*
G01*
X168660000Y-87790000D01*
G75*
G02*
X168800000Y-87930000I0J-140000D01*
G01*
G37*
G36*
G01*
X169760000Y-87930000D02*
X169760000Y-88270000D01*
G75*
G02*
X169620000Y-88410000I-140000J0D01*
G01*
X169340000Y-88410000D01*
G75*
G02*
X169200000Y-88270000I0J140000D01*
G01*
X169200000Y-87930000D01*
G75*
G02*
X169340000Y-87790000I140000J0D01*
G01*
X169620000Y-87790000D01*
G75*
G02*
X169760000Y-87930000I0J-140000D01*
G01*
G37*
%TD*%
%TO.C,R2*%
G36*
G01*
X188790000Y-82785000D02*
X188790000Y-82415000D01*
G75*
G02*
X188925000Y-82280000I135000J0D01*
G01*
X189195000Y-82280000D01*
G75*
G02*
X189330000Y-82415000I0J-135000D01*
G01*
X189330000Y-82785000D01*
G75*
G02*
X189195000Y-82920000I-135000J0D01*
G01*
X188925000Y-82920000D01*
G75*
G02*
X188790000Y-82785000I0J135000D01*
G01*
G37*
G36*
G01*
X187770000Y-82785000D02*
X187770000Y-82415000D01*
G75*
G02*
X187905000Y-82280000I135000J0D01*
G01*
X188175000Y-82280000D01*
G75*
G02*
X188310000Y-82415000I0J-135000D01*
G01*
X188310000Y-82785000D01*
G75*
G02*
X188175000Y-82920000I-135000J0D01*
G01*
X187905000Y-82920000D01*
G75*
G02*
X187770000Y-82785000I0J135000D01*
G01*
G37*
%TD*%
%TO.C,R1*%
G36*
G01*
X188790000Y-86585000D02*
X188790000Y-86215000D01*
G75*
G02*
X188925000Y-86080000I135000J0D01*
G01*
X189195000Y-86080000D01*
G75*
G02*
X189330000Y-86215000I0J-135000D01*
G01*
X189330000Y-86585000D01*
G75*
G02*
X189195000Y-86720000I-135000J0D01*
G01*
X188925000Y-86720000D01*
G75*
G02*
X188790000Y-86585000I0J135000D01*
G01*
G37*
G36*
G01*
X187770000Y-86585000D02*
X187770000Y-86215000D01*
G75*
G02*
X187905000Y-86080000I135000J0D01*
G01*
X188175000Y-86080000D01*
G75*
G02*
X188310000Y-86215000I0J-135000D01*
G01*
X188310000Y-86585000D01*
G75*
G02*
X188175000Y-86720000I-135000J0D01*
G01*
X187905000Y-86720000D01*
G75*
G02*
X187770000Y-86585000I0J135000D01*
G01*
G37*
%TD*%
D18*
%TO.C,J1*%
X191955000Y-81750000D03*
X191955000Y-82550000D03*
X191955000Y-87450000D03*
X191955000Y-88250000D03*
X191955000Y-88250000D03*
X191955000Y-87450000D03*
X191955000Y-82550000D03*
X191955000Y-81750000D03*
D19*
X191955000Y-86750000D03*
X191955000Y-86250000D03*
X191955000Y-85750000D03*
X191955000Y-84750000D03*
X191955000Y-84250000D03*
X191955000Y-83750000D03*
X191955000Y-83250000D03*
X191955000Y-85250000D03*
%TD*%
D20*
%TO.C,D3*%
X189050000Y-87650000D03*
X187650000Y-87650000D03*
%TD*%
D21*
%TO.C,D2*%
X189000000Y-85200000D03*
X189000000Y-83800000D03*
%TD*%
%TO.C,D1*%
X187500000Y-83800000D03*
X187500000Y-85200000D03*
%TD*%
M02*
