M48
; DRILL file {KiCad (5.1.9-0-10_14)} date Wednesday, September 01, 2021 at 03:37:48 PM
; FORMAT={-:-/ absolute / metric / decimal}
; #@! TF.CreationDate,2021-09-01T15:37:48+08:00
; #@! TF.GenerationSoftware,Kicad,Pcbnew,(5.1.9-0-10_14)
; #@! TF.FileFunction,Plated,1,2,PTH
FMAT,2
METRIC
T1C0.300
T2C0.400
T3C0.500
T4C0.600
T5C2.000
%
G90
G05
T1
X101.0Y-78.0
X101.0Y-80.0
X101.0Y-82.0
X101.0Y-84.0
X101.0Y-86.0
X101.0Y-88.0
X101.0Y-90.0
X101.0Y-92.0
X105.0Y-78.0
X105.0Y-80.0
X105.0Y-82.0
X105.0Y-84.0
X105.0Y-86.0
X105.0Y-88.0
X105.0Y-90.0
X105.0Y-92.0
X107.0Y-76.0
X108.0Y-99.0
X108.25Y-82.0
X108.25Y-83.0
X108.25Y-87.0
X108.25Y-88.0
X109.0Y-76.0
X109.0Y-78.0
X109.0Y-80.0
X109.0Y-90.0
X109.0Y-92.0
X109.0Y-94.0
X110.0Y-85.0
X110.0Y-97.0
X110.0Y-99.0
X111.0Y-76.0
X111.0Y-78.0
X112.0Y-99.0
X113.0Y-76.0
X113.0Y-94.0
X113.75Y-82.0
X113.75Y-83.0
X113.75Y-87.0
X113.75Y-88.0
X114.0Y-97.0
X114.0Y-99.0
X115.0Y-76.0
X115.0Y-80.0
X115.0Y-85.0
X115.0Y-90.0
X116.0Y-99.0
X117.0Y-76.0
X118.0Y-97.0
X118.0Y-99.0
X120.0Y-85.0
X120.0Y-99.0
X122.0Y-97.0
X122.0Y-99.0
X124.0Y-99.0
X125.0Y-76.0
X125.0Y-80.0
X125.0Y-85.0
X125.0Y-90.0
X126.0Y-97.0
X126.0Y-99.0
X126.75Y-82.0
X126.75Y-83.0
X126.75Y-84.5
X126.75Y-85.5
X126.75Y-87.0
X126.75Y-88.0
X127.0Y-76.0
X127.0Y-94.0
X128.0Y-99.0
X129.0Y-76.0
X129.5Y-78.0
X130.0Y-97.0
X130.0Y-99.0
X131.0Y-76.0
X132.0Y-78.0
X132.0Y-79.75
X132.0Y-93.0
X132.0Y-99.0
X132.25Y-82.0
X132.25Y-83.0
X132.25Y-84.5
X132.25Y-85.5
X132.25Y-87.0
X132.25Y-88.0
X133.0Y-76.0
X133.75Y-81.75
X134.0Y-78.0
X134.0Y-99.0
X136.0Y-84.0
X136.0Y-89.0
X136.0Y-93.0
X136.0Y-96.0
X136.0Y-99.0
X137.0Y-81.0
X138.0Y-86.0
X138.0Y-99.0
X139.0Y-81.0
X139.0Y-83.0
X140.0Y-89.0
X140.0Y-93.0
X140.0Y-96.0
X140.0Y-99.0
X141.0Y-81.0
X141.0Y-85.0
X142.0Y-91.0
X142.0Y-99.0
X143.0Y-81.0
X143.0Y-83.0
X143.0Y-87.0
X144.0Y-93.0
X144.0Y-96.0
X144.0Y-99.0
X145.0Y-81.0
X145.0Y-89.0
X146.0Y-95.0
X146.0Y-99.0
X147.0Y-81.0
X147.0Y-83.0
X147.0Y-87.0
X147.0Y-91.0
X148.0Y-99.0
X149.0Y-81.0
X149.0Y-93.0
X150.0Y-99.0
X151.0Y-81.0
X151.0Y-83.0
X151.0Y-87.0
X151.0Y-91.0
X151.0Y-95.0
X152.0Y-99.0
X153.0Y-81.0
X154.0Y-99.0
X155.0Y-81.0
X155.0Y-83.0
X155.0Y-87.0
X155.0Y-91.0
X155.0Y-95.0
X156.0Y-99.0
X157.0Y-81.0
X158.0Y-99.0
X159.0Y-81.0
X159.0Y-83.0
X159.0Y-87.0
X159.0Y-91.0
X159.0Y-95.0
X160.0Y-99.0
X161.0Y-81.0
X162.0Y-99.0
X163.0Y-81.0
X163.0Y-91.0
X163.0Y-95.0
X163.425Y-83.0
X164.0Y-81.5
X164.0Y-99.0
X164.425Y-83.0
X165.0Y-81.5
X165.0Y-93.0
X165.475Y-83.0
X166.0Y-81.5
X166.0Y-99.0
X166.475Y-83.0
X166.85Y-85.1
X167.0Y-81.5
X167.0Y-95.0
X167.25Y-86.575
X167.25Y-88.625
X167.75Y-83.0
X168.0Y-81.5
X168.0Y-99.0
X169.0Y-81.5
X169.0Y-91.5
X170.0Y-81.5
X170.0Y-99.0
X170.25Y-90.075
X170.5Y-83.0
X170.5Y-85.0
X170.5Y-86.0
X170.5Y-87.0
X170.5Y-89.0
X171.0Y-95.0
X171.25Y-92.75
X172.0Y-99.0
X173.1Y-82.9
X173.1Y-90.1
X173.75Y-92.75
X173.75Y-95.0
X174.0Y-99.0
X176.0Y-99.0
X176.25Y-92.75
X177.0Y-97.0
X178.0Y-99.0
X179.0Y-95.0
X180.0Y-99.0
X181.25Y-92.75
X181.9Y-82.9
X181.9Y-90.1
X182.0Y-97.0
X182.0Y-99.0
X183.75Y-92.75
X184.0Y-95.0
X184.0Y-99.0
X184.5Y-84.5
X184.5Y-85.5
X184.5Y-86.5
X184.5Y-87.5
X184.5Y-90.5
X185.0Y-81.5
X185.5Y-83.5
X185.5Y-89.5
X186.0Y-81.5
X186.0Y-97.0
X186.0Y-99.0
X186.5Y-82.5
X186.5Y-83.5
X186.5Y-85.5
X186.5Y-86.5
X186.5Y-87.5
X186.5Y-88.5
X187.0Y-81.5
X188.0Y-81.5
X188.0Y-92.0
X188.0Y-95.0
X188.0Y-99.0
X189.0Y-81.5
X190.0Y-81.5
X190.0Y-83.6
X190.0Y-85.6
X190.0Y-86.95
X190.0Y-97.0
X190.0Y-99.0
X190.5Y-76.5
X190.5Y-77.5
X190.5Y-78.5
X190.5Y-79.5
X190.5Y-80.5
X190.5Y-82.25
X190.5Y-88.5
X191.0Y-76.0
X191.25Y-80.75
X191.25Y-89.25
X192.0Y-78.0
X192.0Y-92.0
X192.0Y-95.0
X192.0Y-99.0
X193.0Y-76.0
X193.25Y-85.85
X195.0Y-78.0
X195.0Y-80.0
X195.0Y-82.5
X195.0Y-85.0
X195.0Y-87.5
X195.0Y-90.0
X195.0Y-92.0
X199.0Y-78.0
X199.0Y-92.0
T2
X175.5Y-84.5
X175.5Y-86.5
X175.5Y-88.5
X177.5Y-84.5
X177.5Y-86.5
X177.5Y-88.5
X179.5Y-84.5
X179.5Y-86.5
X179.5Y-88.5
T3
X162.2Y-86.025
X189.05Y-89.0
T4
G00X192.32Y-80.68
M15
G01X193.42Y-80.68
M16
G05
G00X192.32Y-89.32
M15
G01X193.42Y-89.32
M16
G05
G00X196.75Y-80.68
M15
G01X197.35Y-80.68
M16
G05
G00X196.75Y-89.32
M15
G01X197.35Y-89.32
M16
G05
T5
G00X119.6Y-79.3
M15
G01X120.4Y-79.3
M16
G05
G00X119.6Y-90.7
M15
G01X120.4Y-90.7
M16
G05
T0
M30
