%TF.GenerationSoftware,KiCad,Pcbnew,(5.1.9-0-10_14)*%
%TF.CreationDate,2021-08-23T14:50:20+08:00*%
%TF.ProjectId,KNOB_MAIN,4b4e4f42-5f4d-4414-994e-2e6b69636164,V1.0*%
%TF.SameCoordinates,Original*%
%TF.FileFunction,Copper,L2,Bot*%
%TF.FilePolarity,Positive*%
%FSLAX46Y46*%
G04 Gerber Fmt 4.6, Leading zero omitted, Abs format (unit mm)*
G04 Created by KiCad (PCBNEW (5.1.9-0-10_14)) date 2021-08-23 14:50:21*
%MOMM*%
%LPD*%
G01*
G04 APERTURE LIST*
%TA.AperFunction,ComponentPad*%
%ADD10O,6.000000X3.000000*%
%TD*%
%TA.AperFunction,ComponentPad*%
%ADD11O,2.100000X1.000000*%
%TD*%
%TA.AperFunction,ComponentPad*%
%ADD12O,1.600000X1.000000*%
%TD*%
%TA.AperFunction,ViaPad*%
%ADD13C,0.700000*%
%TD*%
%TA.AperFunction,ViaPad*%
%ADD14C,0.500000*%
%TD*%
%TA.AperFunction,ViaPad*%
%ADD15C,0.800000*%
%TD*%
%TA.AperFunction,Conductor*%
%ADD16C,0.500000*%
%TD*%
%TA.AperFunction,Conductor*%
%ADD17C,0.254000*%
%TD*%
%TA.AperFunction,Conductor*%
%ADD18C,0.350000*%
%TD*%
%ADD19C,0.350000*%
%ADD20C,0.300000*%
%ADD21O,2.800000X2.000000*%
%ADD22O,1.700000X0.600000*%
%ADD23O,1.200000X0.600000*%
G04 APERTURE END LIST*
D10*
%TO.P,SW1,*%
%TO.N,*%
X120000000Y-90700000D03*
X120000000Y-79300000D03*
%TD*%
D11*
%TO.P,J1,S1*%
%TO.N,GND*%
X192870000Y-80680000D03*
X192870000Y-89320000D03*
D12*
X197050000Y-89320000D03*
X197050000Y-80680000D03*
%TD*%
D13*
%TO.N,GND*%
X177500000Y-88500000D03*
X175500000Y-86500000D03*
X175500000Y-88500000D03*
X177500000Y-84500000D03*
X179500000Y-84500000D03*
X179500000Y-86500000D03*
X179500000Y-88500000D03*
X175500000Y-84500000D03*
X177500000Y-86500000D03*
D14*
X170500000Y-86000000D03*
X170500000Y-87000000D03*
X170500000Y-85000000D03*
X190000000Y-83600000D03*
X190000000Y-85600000D03*
X190000000Y-86950000D03*
X193250000Y-85850000D03*
X101000000Y-76000000D03*
X103000000Y-76000000D03*
X105000000Y-76000000D03*
X107000000Y-76000000D03*
X109000000Y-76000000D03*
X111000000Y-76000000D03*
X113000000Y-76000000D03*
X115000000Y-76000000D03*
X117000000Y-76000000D03*
X101000000Y-78000000D03*
X101000000Y-80000000D03*
X101000000Y-82000000D03*
X101000000Y-84000000D03*
X101000000Y-86000000D03*
X101000000Y-88000000D03*
X101000000Y-90000000D03*
X101000000Y-92000000D03*
X101000000Y-94000000D03*
X105000000Y-80000000D03*
X109000000Y-80000000D03*
X105000000Y-84000000D03*
X109000000Y-84000000D03*
X105000000Y-88000000D03*
X109000000Y-92000000D03*
X105000000Y-92000000D03*
X105000000Y-94000000D03*
X109000000Y-94000000D03*
X106000000Y-99000000D03*
X108000000Y-99000000D03*
X110000000Y-99000000D03*
X112000000Y-99000000D03*
X114000000Y-99000000D03*
X116000000Y-99000000D03*
X118000000Y-99000000D03*
X120000000Y-99000000D03*
X122000000Y-99000000D03*
X124000000Y-99000000D03*
X126000000Y-99000000D03*
X128000000Y-99000000D03*
X130000000Y-99000000D03*
X132000000Y-99000000D03*
X134000000Y-99000000D03*
X136000000Y-99000000D03*
X138000000Y-99000000D03*
X140000000Y-99000000D03*
X142000000Y-99000000D03*
X144000000Y-99000000D03*
X146000000Y-99000000D03*
X148000000Y-99000000D03*
X150000000Y-99000000D03*
X152000000Y-99000000D03*
X154000000Y-99000000D03*
X156000000Y-99000000D03*
X158000000Y-99000000D03*
X160000000Y-99000000D03*
X162000000Y-99000000D03*
X164000000Y-99000000D03*
X166000000Y-99000000D03*
X168000000Y-99000000D03*
X170000000Y-99000000D03*
X172000000Y-99000000D03*
X174000000Y-99000000D03*
X176000000Y-99000000D03*
X178000000Y-99000000D03*
X180000000Y-99000000D03*
X182000000Y-99000000D03*
X184000000Y-99000000D03*
X186000000Y-99000000D03*
X188000000Y-99000000D03*
X190000000Y-99000000D03*
X192000000Y-99000000D03*
X194000000Y-99000000D03*
X105000000Y-78000000D03*
X109000000Y-78000000D03*
X105000000Y-82000000D03*
X105000000Y-86000000D03*
X109000000Y-86000000D03*
X105000000Y-90000000D03*
X109000000Y-90000000D03*
X106000000Y-97000000D03*
X110000000Y-97000000D03*
X114000000Y-97000000D03*
X118000000Y-97000000D03*
X122000000Y-97000000D03*
X126000000Y-97000000D03*
X130000000Y-97000000D03*
X113000000Y-78000000D03*
X125000000Y-76000000D03*
X127000000Y-76000000D03*
X129000000Y-76000000D03*
X131000000Y-76000000D03*
X133000000Y-76000000D03*
X127000000Y-78000000D03*
X130000000Y-78000000D03*
X134000000Y-78000000D03*
X132000000Y-80000000D03*
X136000000Y-84000000D03*
X138000000Y-86000000D03*
X140000000Y-89000000D03*
X142000000Y-91000000D03*
X144000000Y-93000000D03*
X146000000Y-95000000D03*
X136000000Y-96000000D03*
X140000000Y-96000000D03*
X144000000Y-96000000D03*
X137000000Y-81000000D03*
X139000000Y-81000000D03*
X141000000Y-81000000D03*
X143000000Y-81000000D03*
X145000000Y-81000000D03*
X147000000Y-81000000D03*
X149000000Y-81000000D03*
X151000000Y-81000000D03*
X153000000Y-81000000D03*
X155000000Y-81000000D03*
X157000000Y-81000000D03*
X159000000Y-81000000D03*
X161000000Y-81000000D03*
X163000000Y-81000000D03*
X164000000Y-81500000D03*
X165000000Y-81500000D03*
X166000000Y-81500000D03*
X167000000Y-81500000D03*
X168000000Y-81500000D03*
X169000000Y-81500000D03*
X170000000Y-81500000D03*
X185000000Y-81500000D03*
X186000000Y-81500000D03*
X187000000Y-81500000D03*
X188000000Y-81500000D03*
X189000000Y-81500000D03*
X190000000Y-81500000D03*
X190500000Y-80500000D03*
X190500000Y-79500000D03*
X190500000Y-78500000D03*
X190500000Y-77500000D03*
X190500000Y-76500000D03*
X199000000Y-76000000D03*
X197000000Y-76000000D03*
X195000000Y-76000000D03*
X193000000Y-76000000D03*
X191000000Y-76000000D03*
X199000000Y-78000000D03*
X199000000Y-92000000D03*
X199000000Y-94000000D03*
X195000000Y-78000000D03*
X195000000Y-92000000D03*
X195000000Y-94000000D03*
X191000000Y-94000000D03*
X191000000Y-92000000D03*
X187000000Y-92000000D03*
X187000000Y-94000000D03*
X183000000Y-94000000D03*
X191000000Y-96000000D03*
X187000000Y-96000000D03*
X183000000Y-96000000D03*
X179000000Y-96000000D03*
X150000000Y-95000000D03*
X148000000Y-93000000D03*
X146000000Y-91000000D03*
X144000000Y-89000000D03*
X142000000Y-87000000D03*
X139000000Y-83000000D03*
X142000000Y-84000000D03*
X146000000Y-84000000D03*
X150000000Y-84000000D03*
X154000000Y-84000000D03*
X158000000Y-84000000D03*
X156000000Y-86000000D03*
X152000000Y-86000000D03*
X148000000Y-86000000D03*
X144000000Y-86000000D03*
X154000000Y-95000000D03*
X158000000Y-95000000D03*
X168000000Y-95000000D03*
X172000000Y-95000000D03*
X175000000Y-94000000D03*
X150000000Y-92000000D03*
X154000000Y-92000000D03*
X158000000Y-92000000D03*
X158000000Y-89000000D03*
X154000000Y-89000000D03*
X150000000Y-89000000D03*
X140000000Y-93000000D03*
X136000000Y-93000000D03*
X132000000Y-93000000D03*
X136000000Y-89000000D03*
X132000000Y-89000000D03*
X113000000Y-94000000D03*
X127000000Y-94000000D03*
X132000000Y-84000000D03*
X132000000Y-86000000D03*
D15*
%TO.N,+5V*%
X169000000Y-91150000D03*
X189050000Y-89750000D03*
%TD*%
D16*
%TO.N,+5V*%
X187650000Y-91150000D02*
X189050000Y-89750000D01*
X169000000Y-91150000D02*
X187650000Y-91150000D01*
%TD*%
D17*
%TO.N,GND*%
X197911591Y-70342355D02*
X198322846Y-70463394D01*
X198702753Y-70662005D01*
X199036848Y-70930626D01*
X199312404Y-71259019D01*
X199518927Y-71634684D01*
X199648552Y-72043314D01*
X199697874Y-72483029D01*
X199698001Y-72501253D01*
X199698000Y-97485226D01*
X199654719Y-97926646D01*
X199530814Y-98337039D01*
X199329555Y-98715553D01*
X199058610Y-99047765D01*
X198728297Y-99321023D01*
X198351196Y-99524921D01*
X197941680Y-99651687D01*
X197501094Y-99697994D01*
X197499516Y-99698000D01*
X102514774Y-99698000D01*
X102073354Y-99654719D01*
X101662961Y-99530814D01*
X101284447Y-99329555D01*
X100952235Y-99058610D01*
X100678977Y-98728297D01*
X100475079Y-98351196D01*
X100348313Y-97941680D01*
X100302006Y-97501094D01*
X100302000Y-97499516D01*
X100302000Y-97364377D01*
X101123000Y-97364377D01*
X101123000Y-97635623D01*
X101175917Y-97901656D01*
X101279718Y-98152254D01*
X101430414Y-98377787D01*
X101622213Y-98569586D01*
X101847746Y-98720282D01*
X102098344Y-98824083D01*
X102364377Y-98877000D01*
X102635623Y-98877000D01*
X102901656Y-98824083D01*
X103152254Y-98720282D01*
X103377787Y-98569586D01*
X103569586Y-98377787D01*
X103720282Y-98152254D01*
X103824083Y-97901656D01*
X103877000Y-97635623D01*
X103877000Y-97364377D01*
X196123000Y-97364377D01*
X196123000Y-97635623D01*
X196175917Y-97901656D01*
X196279718Y-98152254D01*
X196430414Y-98377787D01*
X196622213Y-98569586D01*
X196847746Y-98720282D01*
X197098344Y-98824083D01*
X197364377Y-98877000D01*
X197635623Y-98877000D01*
X197901656Y-98824083D01*
X198152254Y-98720282D01*
X198377787Y-98569586D01*
X198569586Y-98377787D01*
X198720282Y-98152254D01*
X198824083Y-97901656D01*
X198877000Y-97635623D01*
X198877000Y-97364377D01*
X198824083Y-97098344D01*
X198720282Y-96847746D01*
X198569586Y-96622213D01*
X198377787Y-96430414D01*
X198152254Y-96279718D01*
X197901656Y-96175917D01*
X197635623Y-96123000D01*
X197364377Y-96123000D01*
X197098344Y-96175917D01*
X196847746Y-96279718D01*
X196622213Y-96430414D01*
X196430414Y-96622213D01*
X196279718Y-96847746D01*
X196175917Y-97098344D01*
X196123000Y-97364377D01*
X103877000Y-97364377D01*
X103824083Y-97098344D01*
X103720282Y-96847746D01*
X103569586Y-96622213D01*
X103377787Y-96430414D01*
X103152254Y-96279718D01*
X102901656Y-96175917D01*
X102635623Y-96123000D01*
X102364377Y-96123000D01*
X102098344Y-96175917D01*
X101847746Y-96279718D01*
X101622213Y-96430414D01*
X101430414Y-96622213D01*
X101279718Y-96847746D01*
X101175917Y-97098344D01*
X101123000Y-97364377D01*
X100302000Y-97364377D01*
X100302000Y-90700000D01*
X116714402Y-90700000D01*
X116748712Y-91048353D01*
X116850323Y-91383319D01*
X117015330Y-91692025D01*
X117237392Y-91962608D01*
X117507975Y-92184670D01*
X117816681Y-92349677D01*
X118151647Y-92451288D01*
X118412704Y-92477000D01*
X121587296Y-92477000D01*
X121848353Y-92451288D01*
X122183319Y-92349677D01*
X122492025Y-92184670D01*
X122762608Y-91962608D01*
X122984670Y-91692025D01*
X123149677Y-91383319D01*
X123240680Y-91083321D01*
X168323000Y-91083321D01*
X168323000Y-91216679D01*
X168349016Y-91347474D01*
X168400050Y-91470680D01*
X168474140Y-91581563D01*
X168568437Y-91675860D01*
X168679320Y-91749950D01*
X168802526Y-91800984D01*
X168933321Y-91827000D01*
X169066679Y-91827000D01*
X169197474Y-91800984D01*
X169320680Y-91749950D01*
X169429857Y-91677000D01*
X187624119Y-91677000D01*
X187650000Y-91679549D01*
X187675881Y-91677000D01*
X187753310Y-91669374D01*
X187852650Y-91639239D01*
X187944202Y-91590304D01*
X188024448Y-91524448D01*
X188040955Y-91504334D01*
X189118690Y-90426600D01*
X189247474Y-90400984D01*
X189370680Y-90349950D01*
X189481563Y-90275860D01*
X189575860Y-90181563D01*
X189649950Y-90070680D01*
X189700984Y-89947474D01*
X189727000Y-89816679D01*
X189727000Y-89683321D01*
X189703535Y-89565351D01*
X191582754Y-89565351D01*
X191603390Y-89646082D01*
X191680775Y-89779620D01*
X191782725Y-89895495D01*
X191905322Y-89989254D01*
X192043855Y-90057294D01*
X192193000Y-90097000D01*
X192743000Y-90097000D01*
X192743000Y-89447000D01*
X192997000Y-89447000D01*
X192997000Y-90097000D01*
X193547000Y-90097000D01*
X193696145Y-90057294D01*
X193834678Y-89989254D01*
X193957275Y-89895495D01*
X194059225Y-89779620D01*
X194136610Y-89646082D01*
X194157246Y-89565351D01*
X196012754Y-89565351D01*
X196033390Y-89646082D01*
X196110775Y-89779620D01*
X196212725Y-89895495D01*
X196335322Y-89989254D01*
X196473855Y-90057294D01*
X196623000Y-90097000D01*
X196923000Y-90097000D01*
X196923000Y-89447000D01*
X197177000Y-89447000D01*
X197177000Y-90097000D01*
X197477000Y-90097000D01*
X197626145Y-90057294D01*
X197764678Y-89989254D01*
X197887275Y-89895495D01*
X197989225Y-89779620D01*
X198066610Y-89646082D01*
X198087246Y-89565351D01*
X198046262Y-89447000D01*
X197177000Y-89447000D01*
X196923000Y-89447000D01*
X196053738Y-89447000D01*
X196012754Y-89565351D01*
X194157246Y-89565351D01*
X194116262Y-89447000D01*
X192997000Y-89447000D01*
X192743000Y-89447000D01*
X191623738Y-89447000D01*
X191582754Y-89565351D01*
X189703535Y-89565351D01*
X189700984Y-89552526D01*
X189649950Y-89429320D01*
X189575860Y-89318437D01*
X189481563Y-89224140D01*
X189370680Y-89150050D01*
X189247474Y-89099016D01*
X189124970Y-89074649D01*
X191582754Y-89074649D01*
X191623738Y-89193000D01*
X192743000Y-89193000D01*
X192743000Y-88543000D01*
X192997000Y-88543000D01*
X192997000Y-89193000D01*
X194116262Y-89193000D01*
X194157246Y-89074649D01*
X196012754Y-89074649D01*
X196053738Y-89193000D01*
X196923000Y-89193000D01*
X196923000Y-88543000D01*
X197177000Y-88543000D01*
X197177000Y-89193000D01*
X198046262Y-89193000D01*
X198087246Y-89074649D01*
X198066610Y-88993918D01*
X197989225Y-88860380D01*
X197887275Y-88744505D01*
X197764678Y-88650746D01*
X197626145Y-88582706D01*
X197477000Y-88543000D01*
X197177000Y-88543000D01*
X196923000Y-88543000D01*
X196623000Y-88543000D01*
X196473855Y-88582706D01*
X196335322Y-88650746D01*
X196212725Y-88744505D01*
X196110775Y-88860380D01*
X196033390Y-88993918D01*
X196012754Y-89074649D01*
X194157246Y-89074649D01*
X194136610Y-88993918D01*
X194059225Y-88860380D01*
X193957275Y-88744505D01*
X193834678Y-88650746D01*
X193696145Y-88582706D01*
X193547000Y-88543000D01*
X192997000Y-88543000D01*
X192743000Y-88543000D01*
X192193000Y-88543000D01*
X192043855Y-88582706D01*
X191905322Y-88650746D01*
X191782725Y-88744505D01*
X191680775Y-88860380D01*
X191603390Y-88993918D01*
X191582754Y-89074649D01*
X189124970Y-89074649D01*
X189116679Y-89073000D01*
X188983321Y-89073000D01*
X188852526Y-89099016D01*
X188729320Y-89150050D01*
X188618437Y-89224140D01*
X188524140Y-89318437D01*
X188450050Y-89429320D01*
X188399016Y-89552526D01*
X188373400Y-89681310D01*
X187431711Y-90623000D01*
X169429857Y-90623000D01*
X169320680Y-90550050D01*
X169197474Y-90499016D01*
X169066679Y-90473000D01*
X168933321Y-90473000D01*
X168802526Y-90499016D01*
X168679320Y-90550050D01*
X168568437Y-90624140D01*
X168474140Y-90718437D01*
X168400050Y-90829320D01*
X168349016Y-90952526D01*
X168323000Y-91083321D01*
X123240680Y-91083321D01*
X123251288Y-91048353D01*
X123285598Y-90700000D01*
X123251288Y-90351647D01*
X123149677Y-90016681D01*
X122984670Y-89707975D01*
X122762608Y-89437392D01*
X122492025Y-89215330D01*
X122183319Y-89050323D01*
X121848353Y-88948712D01*
X121587296Y-88923000D01*
X118412704Y-88923000D01*
X118151647Y-88948712D01*
X117816681Y-89050323D01*
X117507975Y-89215330D01*
X117237392Y-89437392D01*
X117015330Y-89707975D01*
X116850323Y-90016681D01*
X116748712Y-90351647D01*
X116714402Y-90700000D01*
X100302000Y-90700000D01*
X100302000Y-87830708D01*
X192798000Y-87830708D01*
X192798000Y-87949292D01*
X192821134Y-88065597D01*
X192866514Y-88175154D01*
X192932396Y-88273753D01*
X193016247Y-88357604D01*
X193114846Y-88423486D01*
X193224403Y-88468866D01*
X193340708Y-88492000D01*
X193459292Y-88492000D01*
X193575597Y-88468866D01*
X193685154Y-88423486D01*
X193783753Y-88357604D01*
X193867604Y-88273753D01*
X193933486Y-88175154D01*
X193978866Y-88065597D01*
X194002000Y-87949292D01*
X194002000Y-87830708D01*
X193978866Y-87714403D01*
X193933486Y-87604846D01*
X193867604Y-87506247D01*
X193783753Y-87422396D01*
X193685154Y-87356514D01*
X193575597Y-87311134D01*
X193459292Y-87288000D01*
X193340708Y-87288000D01*
X193224403Y-87311134D01*
X193114846Y-87356514D01*
X193016247Y-87422396D01*
X192932396Y-87506247D01*
X192866514Y-87604846D01*
X192821134Y-87714403D01*
X192798000Y-87830708D01*
X100302000Y-87830708D01*
X100302000Y-82050708D01*
X192798000Y-82050708D01*
X192798000Y-82169292D01*
X192821134Y-82285597D01*
X192866514Y-82395154D01*
X192932396Y-82493753D01*
X193016247Y-82577604D01*
X193114846Y-82643486D01*
X193224403Y-82688866D01*
X193340708Y-82712000D01*
X193459292Y-82712000D01*
X193575597Y-82688866D01*
X193685154Y-82643486D01*
X193783753Y-82577604D01*
X193867604Y-82493753D01*
X193933486Y-82395154D01*
X193978866Y-82285597D01*
X194002000Y-82169292D01*
X194002000Y-82050708D01*
X193978866Y-81934403D01*
X193933486Y-81824846D01*
X193867604Y-81726247D01*
X193783753Y-81642396D01*
X193685154Y-81576514D01*
X193575597Y-81531134D01*
X193459292Y-81508000D01*
X193340708Y-81508000D01*
X193224403Y-81531134D01*
X193114846Y-81576514D01*
X193016247Y-81642396D01*
X192932396Y-81726247D01*
X192866514Y-81824846D01*
X192821134Y-81934403D01*
X192798000Y-82050708D01*
X100302000Y-82050708D01*
X100302000Y-79300000D01*
X116714402Y-79300000D01*
X116748712Y-79648353D01*
X116850323Y-79983319D01*
X117015330Y-80292025D01*
X117237392Y-80562608D01*
X117507975Y-80784670D01*
X117816681Y-80949677D01*
X118151647Y-81051288D01*
X118412704Y-81077000D01*
X121587296Y-81077000D01*
X121848353Y-81051288D01*
X122183319Y-80949677D01*
X122492025Y-80784670D01*
X122762608Y-80562608D01*
X122984670Y-80292025D01*
X123149677Y-79983319D01*
X123251288Y-79648353D01*
X123285598Y-79300000D01*
X123251288Y-78951647D01*
X123149677Y-78616681D01*
X122984670Y-78307975D01*
X122762608Y-78037392D01*
X122492025Y-77815330D01*
X122183319Y-77650323D01*
X121848353Y-77548712D01*
X121587296Y-77523000D01*
X118412704Y-77523000D01*
X118151647Y-77548712D01*
X117816681Y-77650323D01*
X117507975Y-77815330D01*
X117237392Y-78037392D01*
X117015330Y-78307975D01*
X116850323Y-78616681D01*
X116748712Y-78951647D01*
X116714402Y-79300000D01*
X100302000Y-79300000D01*
X100302000Y-72514774D01*
X100316746Y-72364377D01*
X101123000Y-72364377D01*
X101123000Y-72635623D01*
X101175917Y-72901656D01*
X101279718Y-73152254D01*
X101430414Y-73377787D01*
X101622213Y-73569586D01*
X101847746Y-73720282D01*
X102098344Y-73824083D01*
X102364377Y-73877000D01*
X102635623Y-73877000D01*
X102901656Y-73824083D01*
X103152254Y-73720282D01*
X103377787Y-73569586D01*
X103569586Y-73377787D01*
X103720282Y-73152254D01*
X103824083Y-72901656D01*
X103877000Y-72635623D01*
X103877000Y-72364377D01*
X103824083Y-72098344D01*
X103720282Y-71847746D01*
X103569586Y-71622213D01*
X103377787Y-71430414D01*
X103152254Y-71279718D01*
X102901656Y-71175917D01*
X102635623Y-71123000D01*
X102364377Y-71123000D01*
X102098344Y-71175917D01*
X101847746Y-71279718D01*
X101622213Y-71430414D01*
X101430414Y-71622213D01*
X101279718Y-71847746D01*
X101175917Y-72098344D01*
X101123000Y-72364377D01*
X100316746Y-72364377D01*
X100345282Y-72073351D01*
X100469186Y-71662959D01*
X100670445Y-71284448D01*
X100941391Y-70952234D01*
X101271703Y-70678977D01*
X101648802Y-70475080D01*
X102058318Y-70348313D01*
X102484668Y-70303502D01*
X102911591Y-70342355D01*
X103322846Y-70463394D01*
X103702753Y-70662005D01*
X104036848Y-70930626D01*
X104312404Y-71259019D01*
X104518927Y-71634684D01*
X104648552Y-72043314D01*
X104697874Y-72483029D01*
X104698000Y-72501111D01*
X104698001Y-74014833D01*
X104699310Y-74028128D01*
X104699267Y-74034353D01*
X104699678Y-74038549D01*
X104720079Y-74232646D01*
X104725581Y-74259446D01*
X104730712Y-74286345D01*
X104731931Y-74290382D01*
X104789643Y-74476819D01*
X104800237Y-74502021D01*
X104810503Y-74527431D01*
X104812483Y-74531154D01*
X104905308Y-74702831D01*
X104920595Y-74725494D01*
X104935602Y-74748428D01*
X104938267Y-74751696D01*
X105062671Y-74902073D01*
X105082070Y-74921337D01*
X105101244Y-74940916D01*
X105104493Y-74943604D01*
X105255735Y-75066954D01*
X105278487Y-75082070D01*
X105301118Y-75097566D01*
X105304828Y-75099571D01*
X105477150Y-75191196D01*
X105502403Y-75201604D01*
X105527614Y-75212410D01*
X105531643Y-75213657D01*
X105718479Y-75270066D01*
X105745294Y-75275375D01*
X105772102Y-75281073D01*
X105776296Y-75281514D01*
X105970529Y-75300559D01*
X105970536Y-75300559D01*
X105985167Y-75302000D01*
X133485227Y-75302000D01*
X133732415Y-75326237D01*
X133955968Y-75393732D01*
X134162162Y-75503367D01*
X134343131Y-75650962D01*
X134491985Y-75830896D01*
X134603058Y-76036320D01*
X134672112Y-76259398D01*
X134698001Y-76505719D01*
X134698000Y-78514832D01*
X134699344Y-78528482D01*
X134699279Y-78537842D01*
X134699691Y-78542039D01*
X134730291Y-78833184D01*
X134735796Y-78860003D01*
X134740924Y-78886884D01*
X134742143Y-78890921D01*
X134828711Y-79170577D01*
X134839289Y-79195739D01*
X134849571Y-79221189D01*
X134851551Y-79224912D01*
X134990790Y-79482428D01*
X135006062Y-79505069D01*
X135021083Y-79528023D01*
X135023749Y-79531291D01*
X135210354Y-79756858D01*
X135229734Y-79776102D01*
X135248926Y-79795701D01*
X135252176Y-79798389D01*
X135479040Y-79983415D01*
X135501792Y-79998531D01*
X135524423Y-80014027D01*
X135528132Y-80016032D01*
X135786613Y-80153469D01*
X135811854Y-80163872D01*
X135837077Y-80174683D01*
X135841106Y-80175929D01*
X136121360Y-80260543D01*
X136148159Y-80265849D01*
X136174984Y-80271551D01*
X136179178Y-80271992D01*
X136470530Y-80300559D01*
X136470536Y-80300559D01*
X136485167Y-80302000D01*
X163373000Y-80302000D01*
X163373000Y-81000000D01*
X163375440Y-81024776D01*
X163382667Y-81048601D01*
X163394403Y-81070557D01*
X163410197Y-81089803D01*
X163429443Y-81105597D01*
X163451399Y-81117333D01*
X163475224Y-81124560D01*
X163500000Y-81127000D01*
X190000000Y-81127000D01*
X190024776Y-81124560D01*
X190048601Y-81117333D01*
X190070557Y-81105597D01*
X190089803Y-81089803D01*
X190105597Y-81070557D01*
X190117333Y-81048601D01*
X190124560Y-81024776D01*
X190127000Y-81000000D01*
X190127000Y-80925351D01*
X191582754Y-80925351D01*
X191603390Y-81006082D01*
X191680775Y-81139620D01*
X191782725Y-81255495D01*
X191905322Y-81349254D01*
X192043855Y-81417294D01*
X192193000Y-81457000D01*
X192743000Y-81457000D01*
X192743000Y-80807000D01*
X192997000Y-80807000D01*
X192997000Y-81457000D01*
X193547000Y-81457000D01*
X193696145Y-81417294D01*
X193834678Y-81349254D01*
X193957275Y-81255495D01*
X194059225Y-81139620D01*
X194136610Y-81006082D01*
X194157246Y-80925351D01*
X196012754Y-80925351D01*
X196033390Y-81006082D01*
X196110775Y-81139620D01*
X196212725Y-81255495D01*
X196335322Y-81349254D01*
X196473855Y-81417294D01*
X196623000Y-81457000D01*
X196923000Y-81457000D01*
X196923000Y-80807000D01*
X197177000Y-80807000D01*
X197177000Y-81457000D01*
X197477000Y-81457000D01*
X197626145Y-81417294D01*
X197764678Y-81349254D01*
X197887275Y-81255495D01*
X197989225Y-81139620D01*
X198066610Y-81006082D01*
X198087246Y-80925351D01*
X198046262Y-80807000D01*
X197177000Y-80807000D01*
X196923000Y-80807000D01*
X196053738Y-80807000D01*
X196012754Y-80925351D01*
X194157246Y-80925351D01*
X194116262Y-80807000D01*
X192997000Y-80807000D01*
X192743000Y-80807000D01*
X191623738Y-80807000D01*
X191582754Y-80925351D01*
X190127000Y-80925351D01*
X190127000Y-80434649D01*
X191582754Y-80434649D01*
X191623738Y-80553000D01*
X192743000Y-80553000D01*
X192743000Y-79903000D01*
X192997000Y-79903000D01*
X192997000Y-80553000D01*
X194116262Y-80553000D01*
X194157246Y-80434649D01*
X196012754Y-80434649D01*
X196053738Y-80553000D01*
X196923000Y-80553000D01*
X196923000Y-79903000D01*
X197177000Y-79903000D01*
X197177000Y-80553000D01*
X198046262Y-80553000D01*
X198087246Y-80434649D01*
X198066610Y-80353918D01*
X197989225Y-80220380D01*
X197887275Y-80104505D01*
X197764678Y-80010746D01*
X197626145Y-79942706D01*
X197477000Y-79903000D01*
X197177000Y-79903000D01*
X196923000Y-79903000D01*
X196623000Y-79903000D01*
X196473855Y-79942706D01*
X196335322Y-80010746D01*
X196212725Y-80104505D01*
X196110775Y-80220380D01*
X196033390Y-80353918D01*
X196012754Y-80434649D01*
X194157246Y-80434649D01*
X194136610Y-80353918D01*
X194059225Y-80220380D01*
X193957275Y-80104505D01*
X193834678Y-80010746D01*
X193696145Y-79942706D01*
X193547000Y-79903000D01*
X192997000Y-79903000D01*
X192743000Y-79903000D01*
X192193000Y-79903000D01*
X192043855Y-79942706D01*
X191905322Y-80010746D01*
X191782725Y-80104505D01*
X191680775Y-80220380D01*
X191603390Y-80353918D01*
X191582754Y-80434649D01*
X190127000Y-80434649D01*
X190127000Y-75302000D01*
X194014833Y-75302000D01*
X194028137Y-75300690D01*
X194034353Y-75300733D01*
X194038549Y-75300322D01*
X194232646Y-75279921D01*
X194259446Y-75274419D01*
X194286345Y-75269288D01*
X194290382Y-75268069D01*
X194476819Y-75210357D01*
X194502021Y-75199763D01*
X194527431Y-75189497D01*
X194531154Y-75187517D01*
X194702831Y-75094692D01*
X194725494Y-75079405D01*
X194748428Y-75064398D01*
X194751696Y-75061733D01*
X194902073Y-74937329D01*
X194921337Y-74917930D01*
X194940916Y-74898756D01*
X194943604Y-74895507D01*
X195066954Y-74744265D01*
X195082070Y-74721513D01*
X195097566Y-74698882D01*
X195099571Y-74695172D01*
X195191196Y-74522850D01*
X195201604Y-74497597D01*
X195212410Y-74472386D01*
X195213657Y-74468357D01*
X195270066Y-74281521D01*
X195275375Y-74254706D01*
X195281073Y-74227898D01*
X195281514Y-74223704D01*
X195300559Y-74029471D01*
X195300559Y-74029464D01*
X195302000Y-74014833D01*
X195302000Y-72514774D01*
X195316746Y-72364377D01*
X196123000Y-72364377D01*
X196123000Y-72635623D01*
X196175917Y-72901656D01*
X196279718Y-73152254D01*
X196430414Y-73377787D01*
X196622213Y-73569586D01*
X196847746Y-73720282D01*
X197098344Y-73824083D01*
X197364377Y-73877000D01*
X197635623Y-73877000D01*
X197901656Y-73824083D01*
X198152254Y-73720282D01*
X198377787Y-73569586D01*
X198569586Y-73377787D01*
X198720282Y-73152254D01*
X198824083Y-72901656D01*
X198877000Y-72635623D01*
X198877000Y-72364377D01*
X198824083Y-72098344D01*
X198720282Y-71847746D01*
X198569586Y-71622213D01*
X198377787Y-71430414D01*
X198152254Y-71279718D01*
X197901656Y-71175917D01*
X197635623Y-71123000D01*
X197364377Y-71123000D01*
X197098344Y-71175917D01*
X196847746Y-71279718D01*
X196622213Y-71430414D01*
X196430414Y-71622213D01*
X196279718Y-71847746D01*
X196175917Y-72098344D01*
X196123000Y-72364377D01*
X195316746Y-72364377D01*
X195345282Y-72073351D01*
X195469186Y-71662959D01*
X195670445Y-71284448D01*
X195941391Y-70952234D01*
X196271703Y-70678977D01*
X196648802Y-70475080D01*
X197058318Y-70348313D01*
X197484668Y-70303502D01*
X197911591Y-70342355D01*
%TA.AperFunction,Conductor*%
D18*
G36*
X197911591Y-70342355D02*
G01*
X198322846Y-70463394D01*
X198702753Y-70662005D01*
X199036848Y-70930626D01*
X199312404Y-71259019D01*
X199518927Y-71634684D01*
X199648552Y-72043314D01*
X199697874Y-72483029D01*
X199698001Y-72501253D01*
X199698000Y-97485226D01*
X199654719Y-97926646D01*
X199530814Y-98337039D01*
X199329555Y-98715553D01*
X199058610Y-99047765D01*
X198728297Y-99321023D01*
X198351196Y-99524921D01*
X197941680Y-99651687D01*
X197501094Y-99697994D01*
X197499516Y-99698000D01*
X102514774Y-99698000D01*
X102073354Y-99654719D01*
X101662961Y-99530814D01*
X101284447Y-99329555D01*
X100952235Y-99058610D01*
X100678977Y-98728297D01*
X100475079Y-98351196D01*
X100348313Y-97941680D01*
X100302006Y-97501094D01*
X100302000Y-97499516D01*
X100302000Y-97364377D01*
X101123000Y-97364377D01*
X101123000Y-97635623D01*
X101175917Y-97901656D01*
X101279718Y-98152254D01*
X101430414Y-98377787D01*
X101622213Y-98569586D01*
X101847746Y-98720282D01*
X102098344Y-98824083D01*
X102364377Y-98877000D01*
X102635623Y-98877000D01*
X102901656Y-98824083D01*
X103152254Y-98720282D01*
X103377787Y-98569586D01*
X103569586Y-98377787D01*
X103720282Y-98152254D01*
X103824083Y-97901656D01*
X103877000Y-97635623D01*
X103877000Y-97364377D01*
X196123000Y-97364377D01*
X196123000Y-97635623D01*
X196175917Y-97901656D01*
X196279718Y-98152254D01*
X196430414Y-98377787D01*
X196622213Y-98569586D01*
X196847746Y-98720282D01*
X197098344Y-98824083D01*
X197364377Y-98877000D01*
X197635623Y-98877000D01*
X197901656Y-98824083D01*
X198152254Y-98720282D01*
X198377787Y-98569586D01*
X198569586Y-98377787D01*
X198720282Y-98152254D01*
X198824083Y-97901656D01*
X198877000Y-97635623D01*
X198877000Y-97364377D01*
X198824083Y-97098344D01*
X198720282Y-96847746D01*
X198569586Y-96622213D01*
X198377787Y-96430414D01*
X198152254Y-96279718D01*
X197901656Y-96175917D01*
X197635623Y-96123000D01*
X197364377Y-96123000D01*
X197098344Y-96175917D01*
X196847746Y-96279718D01*
X196622213Y-96430414D01*
X196430414Y-96622213D01*
X196279718Y-96847746D01*
X196175917Y-97098344D01*
X196123000Y-97364377D01*
X103877000Y-97364377D01*
X103824083Y-97098344D01*
X103720282Y-96847746D01*
X103569586Y-96622213D01*
X103377787Y-96430414D01*
X103152254Y-96279718D01*
X102901656Y-96175917D01*
X102635623Y-96123000D01*
X102364377Y-96123000D01*
X102098344Y-96175917D01*
X101847746Y-96279718D01*
X101622213Y-96430414D01*
X101430414Y-96622213D01*
X101279718Y-96847746D01*
X101175917Y-97098344D01*
X101123000Y-97364377D01*
X100302000Y-97364377D01*
X100302000Y-90700000D01*
X116714402Y-90700000D01*
X116748712Y-91048353D01*
X116850323Y-91383319D01*
X117015330Y-91692025D01*
X117237392Y-91962608D01*
X117507975Y-92184670D01*
X117816681Y-92349677D01*
X118151647Y-92451288D01*
X118412704Y-92477000D01*
X121587296Y-92477000D01*
X121848353Y-92451288D01*
X122183319Y-92349677D01*
X122492025Y-92184670D01*
X122762608Y-91962608D01*
X122984670Y-91692025D01*
X123149677Y-91383319D01*
X123240680Y-91083321D01*
X168323000Y-91083321D01*
X168323000Y-91216679D01*
X168349016Y-91347474D01*
X168400050Y-91470680D01*
X168474140Y-91581563D01*
X168568437Y-91675860D01*
X168679320Y-91749950D01*
X168802526Y-91800984D01*
X168933321Y-91827000D01*
X169066679Y-91827000D01*
X169197474Y-91800984D01*
X169320680Y-91749950D01*
X169429857Y-91677000D01*
X187624119Y-91677000D01*
X187650000Y-91679549D01*
X187675881Y-91677000D01*
X187753310Y-91669374D01*
X187852650Y-91639239D01*
X187944202Y-91590304D01*
X188024448Y-91524448D01*
X188040955Y-91504334D01*
X189118690Y-90426600D01*
X189247474Y-90400984D01*
X189370680Y-90349950D01*
X189481563Y-90275860D01*
X189575860Y-90181563D01*
X189649950Y-90070680D01*
X189700984Y-89947474D01*
X189727000Y-89816679D01*
X189727000Y-89683321D01*
X189703535Y-89565351D01*
X191582754Y-89565351D01*
X191603390Y-89646082D01*
X191680775Y-89779620D01*
X191782725Y-89895495D01*
X191905322Y-89989254D01*
X192043855Y-90057294D01*
X192193000Y-90097000D01*
X192743000Y-90097000D01*
X192743000Y-89447000D01*
X192997000Y-89447000D01*
X192997000Y-90097000D01*
X193547000Y-90097000D01*
X193696145Y-90057294D01*
X193834678Y-89989254D01*
X193957275Y-89895495D01*
X194059225Y-89779620D01*
X194136610Y-89646082D01*
X194157246Y-89565351D01*
X196012754Y-89565351D01*
X196033390Y-89646082D01*
X196110775Y-89779620D01*
X196212725Y-89895495D01*
X196335322Y-89989254D01*
X196473855Y-90057294D01*
X196623000Y-90097000D01*
X196923000Y-90097000D01*
X196923000Y-89447000D01*
X197177000Y-89447000D01*
X197177000Y-90097000D01*
X197477000Y-90097000D01*
X197626145Y-90057294D01*
X197764678Y-89989254D01*
X197887275Y-89895495D01*
X197989225Y-89779620D01*
X198066610Y-89646082D01*
X198087246Y-89565351D01*
X198046262Y-89447000D01*
X197177000Y-89447000D01*
X196923000Y-89447000D01*
X196053738Y-89447000D01*
X196012754Y-89565351D01*
X194157246Y-89565351D01*
X194116262Y-89447000D01*
X192997000Y-89447000D01*
X192743000Y-89447000D01*
X191623738Y-89447000D01*
X191582754Y-89565351D01*
X189703535Y-89565351D01*
X189700984Y-89552526D01*
X189649950Y-89429320D01*
X189575860Y-89318437D01*
X189481563Y-89224140D01*
X189370680Y-89150050D01*
X189247474Y-89099016D01*
X189124970Y-89074649D01*
X191582754Y-89074649D01*
X191623738Y-89193000D01*
X192743000Y-89193000D01*
X192743000Y-88543000D01*
X192997000Y-88543000D01*
X192997000Y-89193000D01*
X194116262Y-89193000D01*
X194157246Y-89074649D01*
X196012754Y-89074649D01*
X196053738Y-89193000D01*
X196923000Y-89193000D01*
X196923000Y-88543000D01*
X197177000Y-88543000D01*
X197177000Y-89193000D01*
X198046262Y-89193000D01*
X198087246Y-89074649D01*
X198066610Y-88993918D01*
X197989225Y-88860380D01*
X197887275Y-88744505D01*
X197764678Y-88650746D01*
X197626145Y-88582706D01*
X197477000Y-88543000D01*
X197177000Y-88543000D01*
X196923000Y-88543000D01*
X196623000Y-88543000D01*
X196473855Y-88582706D01*
X196335322Y-88650746D01*
X196212725Y-88744505D01*
X196110775Y-88860380D01*
X196033390Y-88993918D01*
X196012754Y-89074649D01*
X194157246Y-89074649D01*
X194136610Y-88993918D01*
X194059225Y-88860380D01*
X193957275Y-88744505D01*
X193834678Y-88650746D01*
X193696145Y-88582706D01*
X193547000Y-88543000D01*
X192997000Y-88543000D01*
X192743000Y-88543000D01*
X192193000Y-88543000D01*
X192043855Y-88582706D01*
X191905322Y-88650746D01*
X191782725Y-88744505D01*
X191680775Y-88860380D01*
X191603390Y-88993918D01*
X191582754Y-89074649D01*
X189124970Y-89074649D01*
X189116679Y-89073000D01*
X188983321Y-89073000D01*
X188852526Y-89099016D01*
X188729320Y-89150050D01*
X188618437Y-89224140D01*
X188524140Y-89318437D01*
X188450050Y-89429320D01*
X188399016Y-89552526D01*
X188373400Y-89681310D01*
X187431711Y-90623000D01*
X169429857Y-90623000D01*
X169320680Y-90550050D01*
X169197474Y-90499016D01*
X169066679Y-90473000D01*
X168933321Y-90473000D01*
X168802526Y-90499016D01*
X168679320Y-90550050D01*
X168568437Y-90624140D01*
X168474140Y-90718437D01*
X168400050Y-90829320D01*
X168349016Y-90952526D01*
X168323000Y-91083321D01*
X123240680Y-91083321D01*
X123251288Y-91048353D01*
X123285598Y-90700000D01*
X123251288Y-90351647D01*
X123149677Y-90016681D01*
X122984670Y-89707975D01*
X122762608Y-89437392D01*
X122492025Y-89215330D01*
X122183319Y-89050323D01*
X121848353Y-88948712D01*
X121587296Y-88923000D01*
X118412704Y-88923000D01*
X118151647Y-88948712D01*
X117816681Y-89050323D01*
X117507975Y-89215330D01*
X117237392Y-89437392D01*
X117015330Y-89707975D01*
X116850323Y-90016681D01*
X116748712Y-90351647D01*
X116714402Y-90700000D01*
X100302000Y-90700000D01*
X100302000Y-87830708D01*
X192798000Y-87830708D01*
X192798000Y-87949292D01*
X192821134Y-88065597D01*
X192866514Y-88175154D01*
X192932396Y-88273753D01*
X193016247Y-88357604D01*
X193114846Y-88423486D01*
X193224403Y-88468866D01*
X193340708Y-88492000D01*
X193459292Y-88492000D01*
X193575597Y-88468866D01*
X193685154Y-88423486D01*
X193783753Y-88357604D01*
X193867604Y-88273753D01*
X193933486Y-88175154D01*
X193978866Y-88065597D01*
X194002000Y-87949292D01*
X194002000Y-87830708D01*
X193978866Y-87714403D01*
X193933486Y-87604846D01*
X193867604Y-87506247D01*
X193783753Y-87422396D01*
X193685154Y-87356514D01*
X193575597Y-87311134D01*
X193459292Y-87288000D01*
X193340708Y-87288000D01*
X193224403Y-87311134D01*
X193114846Y-87356514D01*
X193016247Y-87422396D01*
X192932396Y-87506247D01*
X192866514Y-87604846D01*
X192821134Y-87714403D01*
X192798000Y-87830708D01*
X100302000Y-87830708D01*
X100302000Y-82050708D01*
X192798000Y-82050708D01*
X192798000Y-82169292D01*
X192821134Y-82285597D01*
X192866514Y-82395154D01*
X192932396Y-82493753D01*
X193016247Y-82577604D01*
X193114846Y-82643486D01*
X193224403Y-82688866D01*
X193340708Y-82712000D01*
X193459292Y-82712000D01*
X193575597Y-82688866D01*
X193685154Y-82643486D01*
X193783753Y-82577604D01*
X193867604Y-82493753D01*
X193933486Y-82395154D01*
X193978866Y-82285597D01*
X194002000Y-82169292D01*
X194002000Y-82050708D01*
X193978866Y-81934403D01*
X193933486Y-81824846D01*
X193867604Y-81726247D01*
X193783753Y-81642396D01*
X193685154Y-81576514D01*
X193575597Y-81531134D01*
X193459292Y-81508000D01*
X193340708Y-81508000D01*
X193224403Y-81531134D01*
X193114846Y-81576514D01*
X193016247Y-81642396D01*
X192932396Y-81726247D01*
X192866514Y-81824846D01*
X192821134Y-81934403D01*
X192798000Y-82050708D01*
X100302000Y-82050708D01*
X100302000Y-79300000D01*
X116714402Y-79300000D01*
X116748712Y-79648353D01*
X116850323Y-79983319D01*
X117015330Y-80292025D01*
X117237392Y-80562608D01*
X117507975Y-80784670D01*
X117816681Y-80949677D01*
X118151647Y-81051288D01*
X118412704Y-81077000D01*
X121587296Y-81077000D01*
X121848353Y-81051288D01*
X122183319Y-80949677D01*
X122492025Y-80784670D01*
X122762608Y-80562608D01*
X122984670Y-80292025D01*
X123149677Y-79983319D01*
X123251288Y-79648353D01*
X123285598Y-79300000D01*
X123251288Y-78951647D01*
X123149677Y-78616681D01*
X122984670Y-78307975D01*
X122762608Y-78037392D01*
X122492025Y-77815330D01*
X122183319Y-77650323D01*
X121848353Y-77548712D01*
X121587296Y-77523000D01*
X118412704Y-77523000D01*
X118151647Y-77548712D01*
X117816681Y-77650323D01*
X117507975Y-77815330D01*
X117237392Y-78037392D01*
X117015330Y-78307975D01*
X116850323Y-78616681D01*
X116748712Y-78951647D01*
X116714402Y-79300000D01*
X100302000Y-79300000D01*
X100302000Y-72514774D01*
X100316746Y-72364377D01*
X101123000Y-72364377D01*
X101123000Y-72635623D01*
X101175917Y-72901656D01*
X101279718Y-73152254D01*
X101430414Y-73377787D01*
X101622213Y-73569586D01*
X101847746Y-73720282D01*
X102098344Y-73824083D01*
X102364377Y-73877000D01*
X102635623Y-73877000D01*
X102901656Y-73824083D01*
X103152254Y-73720282D01*
X103377787Y-73569586D01*
X103569586Y-73377787D01*
X103720282Y-73152254D01*
X103824083Y-72901656D01*
X103877000Y-72635623D01*
X103877000Y-72364377D01*
X103824083Y-72098344D01*
X103720282Y-71847746D01*
X103569586Y-71622213D01*
X103377787Y-71430414D01*
X103152254Y-71279718D01*
X102901656Y-71175917D01*
X102635623Y-71123000D01*
X102364377Y-71123000D01*
X102098344Y-71175917D01*
X101847746Y-71279718D01*
X101622213Y-71430414D01*
X101430414Y-71622213D01*
X101279718Y-71847746D01*
X101175917Y-72098344D01*
X101123000Y-72364377D01*
X100316746Y-72364377D01*
X100345282Y-72073351D01*
X100469186Y-71662959D01*
X100670445Y-71284448D01*
X100941391Y-70952234D01*
X101271703Y-70678977D01*
X101648802Y-70475080D01*
X102058318Y-70348313D01*
X102484668Y-70303502D01*
X102911591Y-70342355D01*
X103322846Y-70463394D01*
X103702753Y-70662005D01*
X104036848Y-70930626D01*
X104312404Y-71259019D01*
X104518927Y-71634684D01*
X104648552Y-72043314D01*
X104697874Y-72483029D01*
X104698000Y-72501111D01*
X104698001Y-74014833D01*
X104699310Y-74028128D01*
X104699267Y-74034353D01*
X104699678Y-74038549D01*
X104720079Y-74232646D01*
X104725581Y-74259446D01*
X104730712Y-74286345D01*
X104731931Y-74290382D01*
X104789643Y-74476819D01*
X104800237Y-74502021D01*
X104810503Y-74527431D01*
X104812483Y-74531154D01*
X104905308Y-74702831D01*
X104920595Y-74725494D01*
X104935602Y-74748428D01*
X104938267Y-74751696D01*
X105062671Y-74902073D01*
X105082070Y-74921337D01*
X105101244Y-74940916D01*
X105104493Y-74943604D01*
X105255735Y-75066954D01*
X105278487Y-75082070D01*
X105301118Y-75097566D01*
X105304828Y-75099571D01*
X105477150Y-75191196D01*
X105502403Y-75201604D01*
X105527614Y-75212410D01*
X105531643Y-75213657D01*
X105718479Y-75270066D01*
X105745294Y-75275375D01*
X105772102Y-75281073D01*
X105776296Y-75281514D01*
X105970529Y-75300559D01*
X105970536Y-75300559D01*
X105985167Y-75302000D01*
X133485227Y-75302000D01*
X133732415Y-75326237D01*
X133955968Y-75393732D01*
X134162162Y-75503367D01*
X134343131Y-75650962D01*
X134491985Y-75830896D01*
X134603058Y-76036320D01*
X134672112Y-76259398D01*
X134698001Y-76505719D01*
X134698000Y-78514832D01*
X134699344Y-78528482D01*
X134699279Y-78537842D01*
X134699691Y-78542039D01*
X134730291Y-78833184D01*
X134735796Y-78860003D01*
X134740924Y-78886884D01*
X134742143Y-78890921D01*
X134828711Y-79170577D01*
X134839289Y-79195739D01*
X134849571Y-79221189D01*
X134851551Y-79224912D01*
X134990790Y-79482428D01*
X135006062Y-79505069D01*
X135021083Y-79528023D01*
X135023749Y-79531291D01*
X135210354Y-79756858D01*
X135229734Y-79776102D01*
X135248926Y-79795701D01*
X135252176Y-79798389D01*
X135479040Y-79983415D01*
X135501792Y-79998531D01*
X135524423Y-80014027D01*
X135528132Y-80016032D01*
X135786613Y-80153469D01*
X135811854Y-80163872D01*
X135837077Y-80174683D01*
X135841106Y-80175929D01*
X136121360Y-80260543D01*
X136148159Y-80265849D01*
X136174984Y-80271551D01*
X136179178Y-80271992D01*
X136470530Y-80300559D01*
X136470536Y-80300559D01*
X136485167Y-80302000D01*
X163373000Y-80302000D01*
X163373000Y-81000000D01*
X163375440Y-81024776D01*
X163382667Y-81048601D01*
X163394403Y-81070557D01*
X163410197Y-81089803D01*
X163429443Y-81105597D01*
X163451399Y-81117333D01*
X163475224Y-81124560D01*
X163500000Y-81127000D01*
X190000000Y-81127000D01*
X190024776Y-81124560D01*
X190048601Y-81117333D01*
X190070557Y-81105597D01*
X190089803Y-81089803D01*
X190105597Y-81070557D01*
X190117333Y-81048601D01*
X190124560Y-81024776D01*
X190127000Y-81000000D01*
X190127000Y-80925351D01*
X191582754Y-80925351D01*
X191603390Y-81006082D01*
X191680775Y-81139620D01*
X191782725Y-81255495D01*
X191905322Y-81349254D01*
X192043855Y-81417294D01*
X192193000Y-81457000D01*
X192743000Y-81457000D01*
X192743000Y-80807000D01*
X192997000Y-80807000D01*
X192997000Y-81457000D01*
X193547000Y-81457000D01*
X193696145Y-81417294D01*
X193834678Y-81349254D01*
X193957275Y-81255495D01*
X194059225Y-81139620D01*
X194136610Y-81006082D01*
X194157246Y-80925351D01*
X196012754Y-80925351D01*
X196033390Y-81006082D01*
X196110775Y-81139620D01*
X196212725Y-81255495D01*
X196335322Y-81349254D01*
X196473855Y-81417294D01*
X196623000Y-81457000D01*
X196923000Y-81457000D01*
X196923000Y-80807000D01*
X197177000Y-80807000D01*
X197177000Y-81457000D01*
X197477000Y-81457000D01*
X197626145Y-81417294D01*
X197764678Y-81349254D01*
X197887275Y-81255495D01*
X197989225Y-81139620D01*
X198066610Y-81006082D01*
X198087246Y-80925351D01*
X198046262Y-80807000D01*
X197177000Y-80807000D01*
X196923000Y-80807000D01*
X196053738Y-80807000D01*
X196012754Y-80925351D01*
X194157246Y-80925351D01*
X194116262Y-80807000D01*
X192997000Y-80807000D01*
X192743000Y-80807000D01*
X191623738Y-80807000D01*
X191582754Y-80925351D01*
X190127000Y-80925351D01*
X190127000Y-80434649D01*
X191582754Y-80434649D01*
X191623738Y-80553000D01*
X192743000Y-80553000D01*
X192743000Y-79903000D01*
X192997000Y-79903000D01*
X192997000Y-80553000D01*
X194116262Y-80553000D01*
X194157246Y-80434649D01*
X196012754Y-80434649D01*
X196053738Y-80553000D01*
X196923000Y-80553000D01*
X196923000Y-79903000D01*
X197177000Y-79903000D01*
X197177000Y-80553000D01*
X198046262Y-80553000D01*
X198087246Y-80434649D01*
X198066610Y-80353918D01*
X197989225Y-80220380D01*
X197887275Y-80104505D01*
X197764678Y-80010746D01*
X197626145Y-79942706D01*
X197477000Y-79903000D01*
X197177000Y-79903000D01*
X196923000Y-79903000D01*
X196623000Y-79903000D01*
X196473855Y-79942706D01*
X196335322Y-80010746D01*
X196212725Y-80104505D01*
X196110775Y-80220380D01*
X196033390Y-80353918D01*
X196012754Y-80434649D01*
X194157246Y-80434649D01*
X194136610Y-80353918D01*
X194059225Y-80220380D01*
X193957275Y-80104505D01*
X193834678Y-80010746D01*
X193696145Y-79942706D01*
X193547000Y-79903000D01*
X192997000Y-79903000D01*
X192743000Y-79903000D01*
X192193000Y-79903000D01*
X192043855Y-79942706D01*
X191905322Y-80010746D01*
X191782725Y-80104505D01*
X191680775Y-80220380D01*
X191603390Y-80353918D01*
X191582754Y-80434649D01*
X190127000Y-80434649D01*
X190127000Y-75302000D01*
X194014833Y-75302000D01*
X194028137Y-75300690D01*
X194034353Y-75300733D01*
X194038549Y-75300322D01*
X194232646Y-75279921D01*
X194259446Y-75274419D01*
X194286345Y-75269288D01*
X194290382Y-75268069D01*
X194476819Y-75210357D01*
X194502021Y-75199763D01*
X194527431Y-75189497D01*
X194531154Y-75187517D01*
X194702831Y-75094692D01*
X194725494Y-75079405D01*
X194748428Y-75064398D01*
X194751696Y-75061733D01*
X194902073Y-74937329D01*
X194921337Y-74917930D01*
X194940916Y-74898756D01*
X194943604Y-74895507D01*
X195066954Y-74744265D01*
X195082070Y-74721513D01*
X195097566Y-74698882D01*
X195099571Y-74695172D01*
X195191196Y-74522850D01*
X195201604Y-74497597D01*
X195212410Y-74472386D01*
X195213657Y-74468357D01*
X195270066Y-74281521D01*
X195275375Y-74254706D01*
X195281073Y-74227898D01*
X195281514Y-74223704D01*
X195300559Y-74029471D01*
X195300559Y-74029464D01*
X195302000Y-74014833D01*
X195302000Y-72514774D01*
X195316746Y-72364377D01*
X196123000Y-72364377D01*
X196123000Y-72635623D01*
X196175917Y-72901656D01*
X196279718Y-73152254D01*
X196430414Y-73377787D01*
X196622213Y-73569586D01*
X196847746Y-73720282D01*
X197098344Y-73824083D01*
X197364377Y-73877000D01*
X197635623Y-73877000D01*
X197901656Y-73824083D01*
X198152254Y-73720282D01*
X198377787Y-73569586D01*
X198569586Y-73377787D01*
X198720282Y-73152254D01*
X198824083Y-72901656D01*
X198877000Y-72635623D01*
X198877000Y-72364377D01*
X198824083Y-72098344D01*
X198720282Y-71847746D01*
X198569586Y-71622213D01*
X198377787Y-71430414D01*
X198152254Y-71279718D01*
X197901656Y-71175917D01*
X197635623Y-71123000D01*
X197364377Y-71123000D01*
X197098344Y-71175917D01*
X196847746Y-71279718D01*
X196622213Y-71430414D01*
X196430414Y-71622213D01*
X196279718Y-71847746D01*
X196175917Y-72098344D01*
X196123000Y-72364377D01*
X195316746Y-72364377D01*
X195345282Y-72073351D01*
X195469186Y-71662959D01*
X195670445Y-71284448D01*
X195941391Y-70952234D01*
X196271703Y-70678977D01*
X196648802Y-70475080D01*
X197058318Y-70348313D01*
X197484668Y-70303502D01*
X197911591Y-70342355D01*
G37*
%TD.AperFunction*%
%TD*%
D19*
X177500000Y-88500000D03*
X175500000Y-86500000D03*
X175500000Y-88500000D03*
X177500000Y-84500000D03*
X179500000Y-84500000D03*
X179500000Y-86500000D03*
X179500000Y-88500000D03*
X175500000Y-84500000D03*
X177500000Y-86500000D03*
D20*
X170500000Y-86000000D03*
X170500000Y-87000000D03*
X170500000Y-85000000D03*
X190000000Y-83600000D03*
X190000000Y-85600000D03*
X190000000Y-86950000D03*
X193250000Y-85850000D03*
X101000000Y-76000000D03*
X103000000Y-76000000D03*
X105000000Y-76000000D03*
X107000000Y-76000000D03*
X109000000Y-76000000D03*
X111000000Y-76000000D03*
X113000000Y-76000000D03*
X115000000Y-76000000D03*
X117000000Y-76000000D03*
X101000000Y-78000000D03*
X101000000Y-80000000D03*
X101000000Y-82000000D03*
X101000000Y-84000000D03*
X101000000Y-86000000D03*
X101000000Y-88000000D03*
X101000000Y-90000000D03*
X101000000Y-92000000D03*
X101000000Y-94000000D03*
X105000000Y-80000000D03*
X109000000Y-80000000D03*
X105000000Y-84000000D03*
X109000000Y-84000000D03*
X105000000Y-88000000D03*
X109000000Y-92000000D03*
X105000000Y-92000000D03*
X105000000Y-94000000D03*
X109000000Y-94000000D03*
X106000000Y-99000000D03*
X108000000Y-99000000D03*
X110000000Y-99000000D03*
X112000000Y-99000000D03*
X114000000Y-99000000D03*
X116000000Y-99000000D03*
X118000000Y-99000000D03*
X120000000Y-99000000D03*
X122000000Y-99000000D03*
X124000000Y-99000000D03*
X126000000Y-99000000D03*
X128000000Y-99000000D03*
X130000000Y-99000000D03*
X132000000Y-99000000D03*
X134000000Y-99000000D03*
X136000000Y-99000000D03*
X138000000Y-99000000D03*
X140000000Y-99000000D03*
X142000000Y-99000000D03*
X144000000Y-99000000D03*
X146000000Y-99000000D03*
X148000000Y-99000000D03*
X150000000Y-99000000D03*
X152000000Y-99000000D03*
X154000000Y-99000000D03*
X156000000Y-99000000D03*
X158000000Y-99000000D03*
X160000000Y-99000000D03*
X162000000Y-99000000D03*
X164000000Y-99000000D03*
X166000000Y-99000000D03*
X168000000Y-99000000D03*
X170000000Y-99000000D03*
X172000000Y-99000000D03*
X174000000Y-99000000D03*
X176000000Y-99000000D03*
X178000000Y-99000000D03*
X180000000Y-99000000D03*
X182000000Y-99000000D03*
X184000000Y-99000000D03*
X186000000Y-99000000D03*
X188000000Y-99000000D03*
X190000000Y-99000000D03*
X192000000Y-99000000D03*
X194000000Y-99000000D03*
X105000000Y-78000000D03*
X109000000Y-78000000D03*
X105000000Y-82000000D03*
X105000000Y-86000000D03*
X109000000Y-86000000D03*
X105000000Y-90000000D03*
X109000000Y-90000000D03*
X106000000Y-97000000D03*
X110000000Y-97000000D03*
X114000000Y-97000000D03*
X118000000Y-97000000D03*
X122000000Y-97000000D03*
X126000000Y-97000000D03*
X130000000Y-97000000D03*
X113000000Y-78000000D03*
X125000000Y-76000000D03*
X127000000Y-76000000D03*
X129000000Y-76000000D03*
X131000000Y-76000000D03*
X133000000Y-76000000D03*
X127000000Y-78000000D03*
X130000000Y-78000000D03*
X134000000Y-78000000D03*
X132000000Y-80000000D03*
X136000000Y-84000000D03*
X138000000Y-86000000D03*
X140000000Y-89000000D03*
X142000000Y-91000000D03*
X144000000Y-93000000D03*
X146000000Y-95000000D03*
X136000000Y-96000000D03*
X140000000Y-96000000D03*
X144000000Y-96000000D03*
X137000000Y-81000000D03*
X139000000Y-81000000D03*
X141000000Y-81000000D03*
X143000000Y-81000000D03*
X145000000Y-81000000D03*
X147000000Y-81000000D03*
X149000000Y-81000000D03*
X151000000Y-81000000D03*
X153000000Y-81000000D03*
X155000000Y-81000000D03*
X157000000Y-81000000D03*
X159000000Y-81000000D03*
X161000000Y-81000000D03*
X163000000Y-81000000D03*
X164000000Y-81500000D03*
X165000000Y-81500000D03*
X166000000Y-81500000D03*
X167000000Y-81500000D03*
X168000000Y-81500000D03*
X169000000Y-81500000D03*
X170000000Y-81500000D03*
X185000000Y-81500000D03*
X186000000Y-81500000D03*
X187000000Y-81500000D03*
X188000000Y-81500000D03*
X189000000Y-81500000D03*
X190000000Y-81500000D03*
X190500000Y-80500000D03*
X190500000Y-79500000D03*
X190500000Y-78500000D03*
X190500000Y-77500000D03*
X190500000Y-76500000D03*
X199000000Y-76000000D03*
X197000000Y-76000000D03*
X195000000Y-76000000D03*
X193000000Y-76000000D03*
X191000000Y-76000000D03*
X199000000Y-78000000D03*
X199000000Y-92000000D03*
X199000000Y-94000000D03*
X195000000Y-78000000D03*
X195000000Y-92000000D03*
X195000000Y-94000000D03*
X191000000Y-94000000D03*
X191000000Y-92000000D03*
X187000000Y-92000000D03*
X187000000Y-94000000D03*
X183000000Y-94000000D03*
X191000000Y-96000000D03*
X187000000Y-96000000D03*
X183000000Y-96000000D03*
X179000000Y-96000000D03*
X150000000Y-95000000D03*
X148000000Y-93000000D03*
X146000000Y-91000000D03*
X144000000Y-89000000D03*
X142000000Y-87000000D03*
X139000000Y-83000000D03*
X142000000Y-84000000D03*
X146000000Y-84000000D03*
X150000000Y-84000000D03*
X154000000Y-84000000D03*
X158000000Y-84000000D03*
X156000000Y-86000000D03*
X152000000Y-86000000D03*
X148000000Y-86000000D03*
X144000000Y-86000000D03*
X154000000Y-95000000D03*
X158000000Y-95000000D03*
X168000000Y-95000000D03*
X172000000Y-95000000D03*
X175000000Y-94000000D03*
X150000000Y-92000000D03*
X154000000Y-92000000D03*
X158000000Y-92000000D03*
X158000000Y-89000000D03*
X154000000Y-89000000D03*
X150000000Y-89000000D03*
X140000000Y-93000000D03*
X136000000Y-93000000D03*
X132000000Y-93000000D03*
X136000000Y-89000000D03*
X132000000Y-89000000D03*
X113000000Y-94000000D03*
X127000000Y-94000000D03*
X132000000Y-84000000D03*
X132000000Y-86000000D03*
D19*
X169000000Y-91150000D03*
X189050000Y-89750000D03*
X197500000Y-97500000D03*
X197500000Y-72500000D03*
X102500000Y-97500000D03*
X102500000Y-72500000D03*
D21*
X120000000Y-90700000D03*
X120000000Y-79300000D03*
D22*
X192870000Y-80680000D03*
X192870000Y-89320000D03*
D19*
X193400000Y-87890000D03*
D23*
X197050000Y-89320000D03*
D19*
X193400000Y-82110000D03*
D23*
X197050000Y-80680000D03*
M02*
