%TF.GenerationSoftware,KiCad,Pcbnew,(5.1.9-0-10_14)*%
%TF.CreationDate,2021-08-23T14:50:21+08:00*%
%TF.ProjectId,KNOB_MAIN,4b4e4f42-5f4d-4414-994e-2e6b69636164,V1.0*%
%TF.SameCoordinates,Original*%
%TF.FileFunction,Soldermask,Top*%
%TF.FilePolarity,Negative*%
%FSLAX46Y46*%
G04 Gerber Fmt 4.6, Leading zero omitted, Abs format (unit mm)*
G04 Created by KiCad (PCBNEW (5.1.9-0-10_14)) date 2021-08-23 14:50:21*
%MOMM*%
%LPD*%
G01*
G04 APERTURE LIST*
%ADD10C,0.350000*%
%ADD11C,2.300000*%
%ADD12O,6.100000X3.100000*%
%ADD13O,2.200000X1.100000*%
%ADD14C,0.750000*%
%ADD15O,1.700000X1.100000*%
G04 APERTURE END LIST*
%TO.C,C5*%
G36*
G01*
X168275000Y-85375000D02*
X168275000Y-85925000D01*
G75*
G02*
X168025000Y-86175000I-250000J0D01*
G01*
X167525000Y-86175000D01*
G75*
G02*
X167275000Y-85925000I0J250000D01*
G01*
X167275000Y-85375000D01*
G75*
G02*
X167525000Y-85125000I250000J0D01*
G01*
X168025000Y-85125000D01*
G75*
G02*
X168275000Y-85375000I0J-250000D01*
G01*
G37*
G36*
G01*
X169825000Y-85375000D02*
X169825000Y-85925000D01*
G75*
G02*
X169575000Y-86175000I-250000J0D01*
G01*
X169075000Y-86175000D01*
G75*
G02*
X168825000Y-85925000I0J250000D01*
G01*
X168825000Y-85375000D01*
G75*
G02*
X169075000Y-85125000I250000J0D01*
G01*
X169575000Y-85125000D01*
G75*
G02*
X169825000Y-85375000I0J-250000D01*
G01*
G37*
%TD*%
%TO.C,C4*%
G36*
G01*
X168275000Y-83825000D02*
X168275000Y-84375000D01*
G75*
G02*
X168025000Y-84625000I-250000J0D01*
G01*
X167525000Y-84625000D01*
G75*
G02*
X167275000Y-84375000I0J250000D01*
G01*
X167275000Y-83825000D01*
G75*
G02*
X167525000Y-83575000I250000J0D01*
G01*
X168025000Y-83575000D01*
G75*
G02*
X168275000Y-83825000I0J-250000D01*
G01*
G37*
G36*
G01*
X169825000Y-83825000D02*
X169825000Y-84375000D01*
G75*
G02*
X169575000Y-84625000I-250000J0D01*
G01*
X169075000Y-84625000D01*
G75*
G02*
X168825000Y-84375000I0J250000D01*
G01*
X168825000Y-83825000D01*
G75*
G02*
X169075000Y-83575000I250000J0D01*
G01*
X169575000Y-83575000D01*
G75*
G02*
X169825000Y-83825000I0J-250000D01*
G01*
G37*
%TD*%
%TO.C,C2*%
G36*
G01*
X162500000Y-94650000D02*
X163500000Y-94650000D01*
G75*
G02*
X163775000Y-94925000I0J-275000D01*
G01*
X163775000Y-95475000D01*
G75*
G02*
X163500000Y-95750000I-275000J0D01*
G01*
X162500000Y-95750000D01*
G75*
G02*
X162225000Y-95475000I0J275000D01*
G01*
X162225000Y-94925000D01*
G75*
G02*
X162500000Y-94650000I275000J0D01*
G01*
G37*
G36*
G01*
X162500000Y-92750000D02*
X163500000Y-92750000D01*
G75*
G02*
X163775000Y-93025000I0J-275000D01*
G01*
X163775000Y-93575000D01*
G75*
G02*
X163500000Y-93850000I-275000J0D01*
G01*
X162500000Y-93850000D01*
G75*
G02*
X162225000Y-93575000I0J275000D01*
G01*
X162225000Y-93025000D01*
G75*
G02*
X162500000Y-92750000I275000J0D01*
G01*
G37*
%TD*%
%TO.C,C1*%
G36*
G01*
X164800000Y-94650000D02*
X165800000Y-94650000D01*
G75*
G02*
X166075000Y-94925000I0J-275000D01*
G01*
X166075000Y-95475000D01*
G75*
G02*
X165800000Y-95750000I-275000J0D01*
G01*
X164800000Y-95750000D01*
G75*
G02*
X164525000Y-95475000I0J275000D01*
G01*
X164525000Y-94925000D01*
G75*
G02*
X164800000Y-94650000I275000J0D01*
G01*
G37*
G36*
G01*
X164800000Y-92750000D02*
X165800000Y-92750000D01*
G75*
G02*
X166075000Y-93025000I0J-275000D01*
G01*
X166075000Y-93575000D01*
G75*
G02*
X165800000Y-93850000I-275000J0D01*
G01*
X164800000Y-93850000D01*
G75*
G02*
X164525000Y-93575000I0J275000D01*
G01*
X164525000Y-93025000D01*
G75*
G02*
X164800000Y-92750000I275000J0D01*
G01*
G37*
%TD*%
%TO.C,U2*%
G36*
G01*
X178225000Y-85300000D02*
X176775000Y-85300000D01*
G75*
G02*
X176725000Y-85250000I0J50000D01*
G01*
X176725000Y-83800000D01*
G75*
G02*
X176775000Y-83750000I50000J0D01*
G01*
X178225000Y-83750000D01*
G75*
G02*
X178275000Y-83800000I0J-50000D01*
G01*
X178275000Y-85250000D01*
G75*
G02*
X178225000Y-85300000I-50000J0D01*
G01*
G37*
G36*
G01*
X176450000Y-82000000D02*
X176450000Y-81200000D01*
G75*
G02*
X176500000Y-81150000I50000J0D01*
G01*
X176900000Y-81150000D01*
G75*
G02*
X176950000Y-81200000I0J-50000D01*
G01*
X176950000Y-82000000D01*
G75*
G02*
X176900000Y-82050000I-50000J0D01*
G01*
X176500000Y-82050000D01*
G75*
G02*
X176450000Y-82000000I0J50000D01*
G01*
G37*
G36*
G01*
X171900000Y-91850000D02*
X171200000Y-91850000D01*
G75*
G02*
X171150000Y-91800000I0J50000D01*
G01*
X171150000Y-91100000D01*
G75*
G02*
X171200000Y-91050000I50000J0D01*
G01*
X171900000Y-91050000D01*
G75*
G02*
X171950000Y-91100000I0J-50000D01*
G01*
X171950000Y-91800000D01*
G75*
G02*
X171900000Y-91850000I-50000J0D01*
G01*
G37*
G36*
G01*
X176250000Y-87325000D02*
X174800000Y-87325000D01*
G75*
G02*
X174750000Y-87275000I0J50000D01*
G01*
X174750000Y-85825000D01*
G75*
G02*
X174800000Y-85775000I50000J0D01*
G01*
X176250000Y-85775000D01*
G75*
G02*
X176300000Y-85825000I0J-50000D01*
G01*
X176300000Y-87275000D01*
G75*
G02*
X176250000Y-87325000I-50000J0D01*
G01*
G37*
G36*
G01*
X180200000Y-87275000D02*
X178750000Y-87275000D01*
G75*
G02*
X178700000Y-87225000I0J50000D01*
G01*
X178700000Y-85775000D01*
G75*
G02*
X178750000Y-85725000I50000J0D01*
G01*
X180200000Y-85725000D01*
G75*
G02*
X180250000Y-85775000I0J-50000D01*
G01*
X180250000Y-87225000D01*
G75*
G02*
X180200000Y-87275000I-50000J0D01*
G01*
G37*
G36*
G01*
X180450000Y-82000000D02*
X180450000Y-81200000D01*
G75*
G02*
X180500000Y-81150000I50000J0D01*
G01*
X180900000Y-81150000D01*
G75*
G02*
X180950000Y-81200000I0J-50000D01*
G01*
X180950000Y-82000000D01*
G75*
G02*
X180900000Y-82050000I-50000J0D01*
G01*
X180500000Y-82050000D01*
G75*
G02*
X180450000Y-82000000I0J50000D01*
G01*
G37*
G36*
G01*
X180200000Y-89250000D02*
X178750000Y-89250000D01*
G75*
G02*
X178700000Y-89200000I0J50000D01*
G01*
X178700000Y-87750000D01*
G75*
G02*
X178750000Y-87700000I50000J0D01*
G01*
X180200000Y-87700000D01*
G75*
G02*
X180250000Y-87750000I0J-50000D01*
G01*
X180250000Y-89200000D01*
G75*
G02*
X180200000Y-89250000I-50000J0D01*
G01*
G37*
D10*
G36*
X176259755Y-83750961D02*
G01*
X176269134Y-83753806D01*
X176277779Y-83758427D01*
X176285355Y-83764645D01*
X176291573Y-83772221D01*
X176296194Y-83780866D01*
X176299039Y-83790245D01*
X176300000Y-83800000D01*
X176300000Y-85250000D01*
X176299039Y-85259755D01*
X176296194Y-85269134D01*
X176291573Y-85277779D01*
X176285355Y-85285355D01*
X176277779Y-85291573D01*
X176269134Y-85296194D01*
X176259755Y-85299039D01*
X176250000Y-85300000D01*
X174800000Y-85300000D01*
X174790245Y-85299039D01*
X174780866Y-85296194D01*
X174772221Y-85291573D01*
X174764645Y-85285355D01*
X174758427Y-85277779D01*
X174753806Y-85269134D01*
X174750961Y-85259755D01*
X174750000Y-85250000D01*
X174750000Y-84400000D01*
X174750961Y-84390245D01*
X174753806Y-84380866D01*
X174758427Y-84372221D01*
X174764645Y-84364645D01*
X175364645Y-83764645D01*
X175372221Y-83758427D01*
X175380866Y-83753806D01*
X175390245Y-83750961D01*
X175400000Y-83750000D01*
X176250000Y-83750000D01*
X176259755Y-83750961D01*
G37*
G36*
G01*
X176250000Y-89250000D02*
X174800000Y-89250000D01*
G75*
G02*
X174750000Y-89200000I0J50000D01*
G01*
X174750000Y-87750000D01*
G75*
G02*
X174800000Y-87700000I50000J0D01*
G01*
X176250000Y-87700000D01*
G75*
G02*
X176300000Y-87750000I0J-50000D01*
G01*
X176300000Y-89200000D01*
G75*
G02*
X176250000Y-89250000I-50000J0D01*
G01*
G37*
G36*
G01*
X181250000Y-82000000D02*
X181250000Y-81200000D01*
G75*
G02*
X181300000Y-81150000I50000J0D01*
G01*
X181700000Y-81150000D01*
G75*
G02*
X181750000Y-81200000I0J-50000D01*
G01*
X181750000Y-82000000D01*
G75*
G02*
X181700000Y-82050000I-50000J0D01*
G01*
X181300000Y-82050000D01*
G75*
G02*
X181250000Y-82000000I0J50000D01*
G01*
G37*
G36*
G01*
X178050000Y-82000000D02*
X178050000Y-81200000D01*
G75*
G02*
X178100000Y-81150000I50000J0D01*
G01*
X178500000Y-81150000D01*
G75*
G02*
X178550000Y-81200000I0J-50000D01*
G01*
X178550000Y-82000000D01*
G75*
G02*
X178500000Y-82050000I-50000J0D01*
G01*
X178100000Y-82050000D01*
G75*
G02*
X178050000Y-82000000I0J50000D01*
G01*
G37*
G36*
G01*
X180200000Y-85300000D02*
X178750000Y-85300000D01*
G75*
G02*
X178700000Y-85250000I0J50000D01*
G01*
X178700000Y-83800000D01*
G75*
G02*
X178750000Y-83750000I50000J0D01*
G01*
X180200000Y-83750000D01*
G75*
G02*
X180250000Y-83800000I0J-50000D01*
G01*
X180250000Y-85250000D01*
G75*
G02*
X180200000Y-85300000I-50000J0D01*
G01*
G37*
G36*
G01*
X182050000Y-82000000D02*
X182050000Y-81200000D01*
G75*
G02*
X182100000Y-81150000I50000J0D01*
G01*
X182500000Y-81150000D01*
G75*
G02*
X182550000Y-81200000I0J-50000D01*
G01*
X182550000Y-82000000D01*
G75*
G02*
X182500000Y-82050000I-50000J0D01*
G01*
X182100000Y-82050000D01*
G75*
G02*
X182050000Y-82000000I0J50000D01*
G01*
G37*
G36*
G01*
X172450000Y-82000000D02*
X172450000Y-81200000D01*
G75*
G02*
X172500000Y-81150000I50000J0D01*
G01*
X172900000Y-81150000D01*
G75*
G02*
X172950000Y-81200000I0J-50000D01*
G01*
X172950000Y-82000000D01*
G75*
G02*
X172900000Y-82050000I-50000J0D01*
G01*
X172500000Y-82050000D01*
G75*
G02*
X172450000Y-82000000I0J50000D01*
G01*
G37*
G36*
G01*
X178225000Y-87275000D02*
X176775000Y-87275000D01*
G75*
G02*
X176725000Y-87225000I0J50000D01*
G01*
X176725000Y-85775000D01*
G75*
G02*
X176775000Y-85725000I50000J0D01*
G01*
X178225000Y-85725000D01*
G75*
G02*
X178275000Y-85775000I0J-50000D01*
G01*
X178275000Y-87225000D01*
G75*
G02*
X178225000Y-87275000I-50000J0D01*
G01*
G37*
G36*
G01*
X174850000Y-82000000D02*
X174850000Y-81200000D01*
G75*
G02*
X174900000Y-81150000I50000J0D01*
G01*
X175300000Y-81150000D01*
G75*
G02*
X175350000Y-81200000I0J-50000D01*
G01*
X175350000Y-82000000D01*
G75*
G02*
X175300000Y-82050000I-50000J0D01*
G01*
X174900000Y-82050000D01*
G75*
G02*
X174850000Y-82000000I0J50000D01*
G01*
G37*
G36*
G01*
X173250000Y-82000000D02*
X173250000Y-81200000D01*
G75*
G02*
X173300000Y-81150000I50000J0D01*
G01*
X173700000Y-81150000D01*
G75*
G02*
X173750000Y-81200000I0J-50000D01*
G01*
X173750000Y-82000000D01*
G75*
G02*
X173700000Y-82050000I-50000J0D01*
G01*
X173300000Y-82050000D01*
G75*
G02*
X173250000Y-82000000I0J50000D01*
G01*
G37*
G36*
G01*
X171900000Y-81950000D02*
X171200000Y-81950000D01*
G75*
G02*
X171150000Y-81900000I0J50000D01*
G01*
X171150000Y-81200000D01*
G75*
G02*
X171200000Y-81150000I50000J0D01*
G01*
X171900000Y-81150000D01*
G75*
G02*
X171950000Y-81200000I0J-50000D01*
G01*
X171950000Y-81900000D01*
G75*
G02*
X171900000Y-81950000I-50000J0D01*
G01*
G37*
G36*
G01*
X177250000Y-82000000D02*
X177250000Y-81200000D01*
G75*
G02*
X177300000Y-81150000I50000J0D01*
G01*
X177700000Y-81150000D01*
G75*
G02*
X177750000Y-81200000I0J-50000D01*
G01*
X177750000Y-82000000D01*
G75*
G02*
X177700000Y-82050000I-50000J0D01*
G01*
X177300000Y-82050000D01*
G75*
G02*
X177250000Y-82000000I0J50000D01*
G01*
G37*
G36*
G01*
X183800000Y-81950000D02*
X183100000Y-81950000D01*
G75*
G02*
X183050000Y-81900000I0J50000D01*
G01*
X183050000Y-81200000D01*
G75*
G02*
X183100000Y-81150000I50000J0D01*
G01*
X183800000Y-81150000D01*
G75*
G02*
X183850000Y-81200000I0J-50000D01*
G01*
X183850000Y-81900000D01*
G75*
G02*
X183800000Y-81950000I-50000J0D01*
G01*
G37*
G36*
G01*
X174050000Y-82000000D02*
X174050000Y-81200000D01*
G75*
G02*
X174100000Y-81150000I50000J0D01*
G01*
X174500000Y-81150000D01*
G75*
G02*
X174550000Y-81200000I0J-50000D01*
G01*
X174550000Y-82000000D01*
G75*
G02*
X174500000Y-82050000I-50000J0D01*
G01*
X174100000Y-82050000D01*
G75*
G02*
X174050000Y-82000000I0J50000D01*
G01*
G37*
G36*
G01*
X175650000Y-82000000D02*
X175650000Y-81200000D01*
G75*
G02*
X175700000Y-81150000I50000J0D01*
G01*
X176100000Y-81150000D01*
G75*
G02*
X176150000Y-81200000I0J-50000D01*
G01*
X176150000Y-82000000D01*
G75*
G02*
X176100000Y-82050000I-50000J0D01*
G01*
X175700000Y-82050000D01*
G75*
G02*
X175650000Y-82000000I0J50000D01*
G01*
G37*
G36*
G01*
X178225000Y-89250000D02*
X176775000Y-89250000D01*
G75*
G02*
X176725000Y-89200000I0J50000D01*
G01*
X176725000Y-87750000D01*
G75*
G02*
X176775000Y-87700000I50000J0D01*
G01*
X178225000Y-87700000D01*
G75*
G02*
X178275000Y-87750000I0J-50000D01*
G01*
X178275000Y-89200000D01*
G75*
G02*
X178225000Y-89250000I-50000J0D01*
G01*
G37*
G36*
G01*
X179650000Y-82000000D02*
X179650000Y-81200000D01*
G75*
G02*
X179700000Y-81150000I50000J0D01*
G01*
X180100000Y-81150000D01*
G75*
G02*
X180150000Y-81200000I0J-50000D01*
G01*
X180150000Y-82000000D01*
G75*
G02*
X180100000Y-82050000I-50000J0D01*
G01*
X179700000Y-82050000D01*
G75*
G02*
X179650000Y-82000000I0J50000D01*
G01*
G37*
G36*
G01*
X183800000Y-91850000D02*
X183100000Y-91850000D01*
G75*
G02*
X183050000Y-91800000I0J50000D01*
G01*
X183050000Y-91100000D01*
G75*
G02*
X183100000Y-91050000I50000J0D01*
G01*
X183800000Y-91050000D01*
G75*
G02*
X183850000Y-91100000I0J-50000D01*
G01*
X183850000Y-91800000D01*
G75*
G02*
X183800000Y-91850000I-50000J0D01*
G01*
G37*
G36*
G01*
X178850000Y-82000000D02*
X178850000Y-81200000D01*
G75*
G02*
X178900000Y-81150000I50000J0D01*
G01*
X179300000Y-81150000D01*
G75*
G02*
X179350000Y-81200000I0J-50000D01*
G01*
X179350000Y-82000000D01*
G75*
G02*
X179300000Y-82050000I-50000J0D01*
G01*
X178900000Y-82050000D01*
G75*
G02*
X178850000Y-82000000I0J50000D01*
G01*
G37*
G36*
G01*
X183800000Y-82750000D02*
X183000000Y-82750000D01*
G75*
G02*
X182950000Y-82700000I0J50000D01*
G01*
X182950000Y-82300000D01*
G75*
G02*
X183000000Y-82250000I50000J0D01*
G01*
X183800000Y-82250000D01*
G75*
G02*
X183850000Y-82300000I0J-50000D01*
G01*
X183850000Y-82700000D01*
G75*
G02*
X183800000Y-82750000I-50000J0D01*
G01*
G37*
G36*
G01*
X183800000Y-83550000D02*
X183000000Y-83550000D01*
G75*
G02*
X182950000Y-83500000I0J50000D01*
G01*
X182950000Y-83100000D01*
G75*
G02*
X183000000Y-83050000I50000J0D01*
G01*
X183800000Y-83050000D01*
G75*
G02*
X183850000Y-83100000I0J-50000D01*
G01*
X183850000Y-83500000D01*
G75*
G02*
X183800000Y-83550000I-50000J0D01*
G01*
G37*
G36*
G01*
X183800000Y-84350000D02*
X183000000Y-84350000D01*
G75*
G02*
X182950000Y-84300000I0J50000D01*
G01*
X182950000Y-83900000D01*
G75*
G02*
X183000000Y-83850000I50000J0D01*
G01*
X183800000Y-83850000D01*
G75*
G02*
X183850000Y-83900000I0J-50000D01*
G01*
X183850000Y-84300000D01*
G75*
G02*
X183800000Y-84350000I-50000J0D01*
G01*
G37*
G36*
G01*
X183800000Y-85150000D02*
X183000000Y-85150000D01*
G75*
G02*
X182950000Y-85100000I0J50000D01*
G01*
X182950000Y-84700000D01*
G75*
G02*
X183000000Y-84650000I50000J0D01*
G01*
X183800000Y-84650000D01*
G75*
G02*
X183850000Y-84700000I0J-50000D01*
G01*
X183850000Y-85100000D01*
G75*
G02*
X183800000Y-85150000I-50000J0D01*
G01*
G37*
G36*
G01*
X183800000Y-85950000D02*
X183000000Y-85950000D01*
G75*
G02*
X182950000Y-85900000I0J50000D01*
G01*
X182950000Y-85500000D01*
G75*
G02*
X183000000Y-85450000I50000J0D01*
G01*
X183800000Y-85450000D01*
G75*
G02*
X183850000Y-85500000I0J-50000D01*
G01*
X183850000Y-85900000D01*
G75*
G02*
X183800000Y-85950000I-50000J0D01*
G01*
G37*
G36*
G01*
X183800000Y-86750000D02*
X183000000Y-86750000D01*
G75*
G02*
X182950000Y-86700000I0J50000D01*
G01*
X182950000Y-86300000D01*
G75*
G02*
X183000000Y-86250000I50000J0D01*
G01*
X183800000Y-86250000D01*
G75*
G02*
X183850000Y-86300000I0J-50000D01*
G01*
X183850000Y-86700000D01*
G75*
G02*
X183800000Y-86750000I-50000J0D01*
G01*
G37*
G36*
G01*
X183800000Y-87550000D02*
X183000000Y-87550000D01*
G75*
G02*
X182950000Y-87500000I0J50000D01*
G01*
X182950000Y-87100000D01*
G75*
G02*
X183000000Y-87050000I50000J0D01*
G01*
X183800000Y-87050000D01*
G75*
G02*
X183850000Y-87100000I0J-50000D01*
G01*
X183850000Y-87500000D01*
G75*
G02*
X183800000Y-87550000I-50000J0D01*
G01*
G37*
G36*
G01*
X183800000Y-88350000D02*
X183000000Y-88350000D01*
G75*
G02*
X182950000Y-88300000I0J50000D01*
G01*
X182950000Y-87900000D01*
G75*
G02*
X183000000Y-87850000I50000J0D01*
G01*
X183800000Y-87850000D01*
G75*
G02*
X183850000Y-87900000I0J-50000D01*
G01*
X183850000Y-88300000D01*
G75*
G02*
X183800000Y-88350000I-50000J0D01*
G01*
G37*
G36*
G01*
X183800000Y-89150000D02*
X183000000Y-89150000D01*
G75*
G02*
X182950000Y-89100000I0J50000D01*
G01*
X182950000Y-88700000D01*
G75*
G02*
X183000000Y-88650000I50000J0D01*
G01*
X183800000Y-88650000D01*
G75*
G02*
X183850000Y-88700000I0J-50000D01*
G01*
X183850000Y-89100000D01*
G75*
G02*
X183800000Y-89150000I-50000J0D01*
G01*
G37*
G36*
G01*
X183800000Y-89950000D02*
X183000000Y-89950000D01*
G75*
G02*
X182950000Y-89900000I0J50000D01*
G01*
X182950000Y-89500000D01*
G75*
G02*
X183000000Y-89450000I50000J0D01*
G01*
X183800000Y-89450000D01*
G75*
G02*
X183850000Y-89500000I0J-50000D01*
G01*
X183850000Y-89900000D01*
G75*
G02*
X183800000Y-89950000I-50000J0D01*
G01*
G37*
G36*
G01*
X183800000Y-90750000D02*
X183000000Y-90750000D01*
G75*
G02*
X182950000Y-90700000I0J50000D01*
G01*
X182950000Y-90300000D01*
G75*
G02*
X183000000Y-90250000I50000J0D01*
G01*
X183800000Y-90250000D01*
G75*
G02*
X183850000Y-90300000I0J-50000D01*
G01*
X183850000Y-90700000D01*
G75*
G02*
X183800000Y-90750000I-50000J0D01*
G01*
G37*
G36*
G01*
X182050000Y-91800000D02*
X182050000Y-91000000D01*
G75*
G02*
X182100000Y-90950000I50000J0D01*
G01*
X182500000Y-90950000D01*
G75*
G02*
X182550000Y-91000000I0J-50000D01*
G01*
X182550000Y-91800000D01*
G75*
G02*
X182500000Y-91850000I-50000J0D01*
G01*
X182100000Y-91850000D01*
G75*
G02*
X182050000Y-91800000I0J50000D01*
G01*
G37*
G36*
G01*
X181250000Y-91800000D02*
X181250000Y-91000000D01*
G75*
G02*
X181300000Y-90950000I50000J0D01*
G01*
X181700000Y-90950000D01*
G75*
G02*
X181750000Y-91000000I0J-50000D01*
G01*
X181750000Y-91800000D01*
G75*
G02*
X181700000Y-91850000I-50000J0D01*
G01*
X181300000Y-91850000D01*
G75*
G02*
X181250000Y-91800000I0J50000D01*
G01*
G37*
G36*
G01*
X180450000Y-91800000D02*
X180450000Y-91000000D01*
G75*
G02*
X180500000Y-90950000I50000J0D01*
G01*
X180900000Y-90950000D01*
G75*
G02*
X180950000Y-91000000I0J-50000D01*
G01*
X180950000Y-91800000D01*
G75*
G02*
X180900000Y-91850000I-50000J0D01*
G01*
X180500000Y-91850000D01*
G75*
G02*
X180450000Y-91800000I0J50000D01*
G01*
G37*
G36*
G01*
X179650000Y-91800000D02*
X179650000Y-91000000D01*
G75*
G02*
X179700000Y-90950000I50000J0D01*
G01*
X180100000Y-90950000D01*
G75*
G02*
X180150000Y-91000000I0J-50000D01*
G01*
X180150000Y-91800000D01*
G75*
G02*
X180100000Y-91850000I-50000J0D01*
G01*
X179700000Y-91850000D01*
G75*
G02*
X179650000Y-91800000I0J50000D01*
G01*
G37*
G36*
G01*
X178850000Y-91800000D02*
X178850000Y-91000000D01*
G75*
G02*
X178900000Y-90950000I50000J0D01*
G01*
X179300000Y-90950000D01*
G75*
G02*
X179350000Y-91000000I0J-50000D01*
G01*
X179350000Y-91800000D01*
G75*
G02*
X179300000Y-91850000I-50000J0D01*
G01*
X178900000Y-91850000D01*
G75*
G02*
X178850000Y-91800000I0J50000D01*
G01*
G37*
G36*
G01*
X178050000Y-91800000D02*
X178050000Y-91000000D01*
G75*
G02*
X178100000Y-90950000I50000J0D01*
G01*
X178500000Y-90950000D01*
G75*
G02*
X178550000Y-91000000I0J-50000D01*
G01*
X178550000Y-91800000D01*
G75*
G02*
X178500000Y-91850000I-50000J0D01*
G01*
X178100000Y-91850000D01*
G75*
G02*
X178050000Y-91800000I0J50000D01*
G01*
G37*
G36*
G01*
X177250000Y-91800000D02*
X177250000Y-91000000D01*
G75*
G02*
X177300000Y-90950000I50000J0D01*
G01*
X177700000Y-90950000D01*
G75*
G02*
X177750000Y-91000000I0J-50000D01*
G01*
X177750000Y-91800000D01*
G75*
G02*
X177700000Y-91850000I-50000J0D01*
G01*
X177300000Y-91850000D01*
G75*
G02*
X177250000Y-91800000I0J50000D01*
G01*
G37*
G36*
G01*
X176450000Y-91800000D02*
X176450000Y-91000000D01*
G75*
G02*
X176500000Y-90950000I50000J0D01*
G01*
X176900000Y-90950000D01*
G75*
G02*
X176950000Y-91000000I0J-50000D01*
G01*
X176950000Y-91800000D01*
G75*
G02*
X176900000Y-91850000I-50000J0D01*
G01*
X176500000Y-91850000D01*
G75*
G02*
X176450000Y-91800000I0J50000D01*
G01*
G37*
G36*
G01*
X175650000Y-91800000D02*
X175650000Y-91000000D01*
G75*
G02*
X175700000Y-90950000I50000J0D01*
G01*
X176100000Y-90950000D01*
G75*
G02*
X176150000Y-91000000I0J-50000D01*
G01*
X176150000Y-91800000D01*
G75*
G02*
X176100000Y-91850000I-50000J0D01*
G01*
X175700000Y-91850000D01*
G75*
G02*
X175650000Y-91800000I0J50000D01*
G01*
G37*
G36*
G01*
X174850000Y-91800000D02*
X174850000Y-91000000D01*
G75*
G02*
X174900000Y-90950000I50000J0D01*
G01*
X175300000Y-90950000D01*
G75*
G02*
X175350000Y-91000000I0J-50000D01*
G01*
X175350000Y-91800000D01*
G75*
G02*
X175300000Y-91850000I-50000J0D01*
G01*
X174900000Y-91850000D01*
G75*
G02*
X174850000Y-91800000I0J50000D01*
G01*
G37*
G36*
G01*
X174050000Y-91800000D02*
X174050000Y-91000000D01*
G75*
G02*
X174100000Y-90950000I50000J0D01*
G01*
X174500000Y-90950000D01*
G75*
G02*
X174550000Y-91000000I0J-50000D01*
G01*
X174550000Y-91800000D01*
G75*
G02*
X174500000Y-91850000I-50000J0D01*
G01*
X174100000Y-91850000D01*
G75*
G02*
X174050000Y-91800000I0J50000D01*
G01*
G37*
G36*
G01*
X173250000Y-91800000D02*
X173250000Y-91000000D01*
G75*
G02*
X173300000Y-90950000I50000J0D01*
G01*
X173700000Y-90950000D01*
G75*
G02*
X173750000Y-91000000I0J-50000D01*
G01*
X173750000Y-91800000D01*
G75*
G02*
X173700000Y-91850000I-50000J0D01*
G01*
X173300000Y-91850000D01*
G75*
G02*
X173250000Y-91800000I0J50000D01*
G01*
G37*
G36*
G01*
X172450000Y-91800000D02*
X172450000Y-91000000D01*
G75*
G02*
X172500000Y-90950000I50000J0D01*
G01*
X172900000Y-90950000D01*
G75*
G02*
X172950000Y-91000000I0J-50000D01*
G01*
X172950000Y-91800000D01*
G75*
G02*
X172900000Y-91850000I-50000J0D01*
G01*
X172500000Y-91850000D01*
G75*
G02*
X172450000Y-91800000I0J50000D01*
G01*
G37*
G36*
G01*
X172000000Y-90750000D02*
X171200000Y-90750000D01*
G75*
G02*
X171150000Y-90700000I0J50000D01*
G01*
X171150000Y-90300000D01*
G75*
G02*
X171200000Y-90250000I50000J0D01*
G01*
X172000000Y-90250000D01*
G75*
G02*
X172050000Y-90300000I0J-50000D01*
G01*
X172050000Y-90700000D01*
G75*
G02*
X172000000Y-90750000I-50000J0D01*
G01*
G37*
G36*
G01*
X172000000Y-89950000D02*
X171200000Y-89950000D01*
G75*
G02*
X171150000Y-89900000I0J50000D01*
G01*
X171150000Y-89500000D01*
G75*
G02*
X171200000Y-89450000I50000J0D01*
G01*
X172000000Y-89450000D01*
G75*
G02*
X172050000Y-89500000I0J-50000D01*
G01*
X172050000Y-89900000D01*
G75*
G02*
X172000000Y-89950000I-50000J0D01*
G01*
G37*
G36*
G01*
X172000000Y-89150000D02*
X171200000Y-89150000D01*
G75*
G02*
X171150000Y-89100000I0J50000D01*
G01*
X171150000Y-88700000D01*
G75*
G02*
X171200000Y-88650000I50000J0D01*
G01*
X172000000Y-88650000D01*
G75*
G02*
X172050000Y-88700000I0J-50000D01*
G01*
X172050000Y-89100000D01*
G75*
G02*
X172000000Y-89150000I-50000J0D01*
G01*
G37*
G36*
G01*
X172000000Y-88350000D02*
X171200000Y-88350000D01*
G75*
G02*
X171150000Y-88300000I0J50000D01*
G01*
X171150000Y-87900000D01*
G75*
G02*
X171200000Y-87850000I50000J0D01*
G01*
X172000000Y-87850000D01*
G75*
G02*
X172050000Y-87900000I0J-50000D01*
G01*
X172050000Y-88300000D01*
G75*
G02*
X172000000Y-88350000I-50000J0D01*
G01*
G37*
G36*
G01*
X172000000Y-87550000D02*
X171200000Y-87550000D01*
G75*
G02*
X171150000Y-87500000I0J50000D01*
G01*
X171150000Y-87100000D01*
G75*
G02*
X171200000Y-87050000I50000J0D01*
G01*
X172000000Y-87050000D01*
G75*
G02*
X172050000Y-87100000I0J-50000D01*
G01*
X172050000Y-87500000D01*
G75*
G02*
X172000000Y-87550000I-50000J0D01*
G01*
G37*
G36*
G01*
X172000000Y-86750000D02*
X171200000Y-86750000D01*
G75*
G02*
X171150000Y-86700000I0J50000D01*
G01*
X171150000Y-86300000D01*
G75*
G02*
X171200000Y-86250000I50000J0D01*
G01*
X172000000Y-86250000D01*
G75*
G02*
X172050000Y-86300000I0J-50000D01*
G01*
X172050000Y-86700000D01*
G75*
G02*
X172000000Y-86750000I-50000J0D01*
G01*
G37*
G36*
G01*
X172000000Y-85950000D02*
X171200000Y-85950000D01*
G75*
G02*
X171150000Y-85900000I0J50000D01*
G01*
X171150000Y-85500000D01*
G75*
G02*
X171200000Y-85450000I50000J0D01*
G01*
X172000000Y-85450000D01*
G75*
G02*
X172050000Y-85500000I0J-50000D01*
G01*
X172050000Y-85900000D01*
G75*
G02*
X172000000Y-85950000I-50000J0D01*
G01*
G37*
G36*
G01*
X172000000Y-85150000D02*
X171200000Y-85150000D01*
G75*
G02*
X171150000Y-85100000I0J50000D01*
G01*
X171150000Y-84700000D01*
G75*
G02*
X171200000Y-84650000I50000J0D01*
G01*
X172000000Y-84650000D01*
G75*
G02*
X172050000Y-84700000I0J-50000D01*
G01*
X172050000Y-85100000D01*
G75*
G02*
X172000000Y-85150000I-50000J0D01*
G01*
G37*
G36*
G01*
X172000000Y-84350000D02*
X171200000Y-84350000D01*
G75*
G02*
X171150000Y-84300000I0J50000D01*
G01*
X171150000Y-83900000D01*
G75*
G02*
X171200000Y-83850000I50000J0D01*
G01*
X172000000Y-83850000D01*
G75*
G02*
X172050000Y-83900000I0J-50000D01*
G01*
X172050000Y-84300000D01*
G75*
G02*
X172000000Y-84350000I-50000J0D01*
G01*
G37*
G36*
G01*
X172000000Y-83550000D02*
X171200000Y-83550000D01*
G75*
G02*
X171150000Y-83500000I0J50000D01*
G01*
X171150000Y-83100000D01*
G75*
G02*
X171200000Y-83050000I50000J0D01*
G01*
X172000000Y-83050000D01*
G75*
G02*
X172050000Y-83100000I0J-50000D01*
G01*
X172050000Y-83500000D01*
G75*
G02*
X172000000Y-83550000I-50000J0D01*
G01*
G37*
G36*
G01*
X172000000Y-82750000D02*
X171200000Y-82750000D01*
G75*
G02*
X171150000Y-82700000I0J50000D01*
G01*
X171150000Y-82300000D01*
G75*
G02*
X171200000Y-82250000I50000J0D01*
G01*
X172000000Y-82250000D01*
G75*
G02*
X172050000Y-82300000I0J-50000D01*
G01*
X172050000Y-82700000D01*
G75*
G02*
X172000000Y-82750000I-50000J0D01*
G01*
G37*
%TD*%
D11*
%TO.C,H4*%
X197500000Y-97500000D03*
%TD*%
%TO.C,H3*%
X197500000Y-72500000D03*
%TD*%
%TO.C,H2*%
X102500000Y-97500000D03*
%TD*%
%TO.C,H1*%
X102500000Y-72500000D03*
%TD*%
%TO.C,R4*%
G36*
G01*
X122690000Y-76710000D02*
X122690000Y-76290000D01*
G75*
G02*
X122850000Y-76130000I160000J0D01*
G01*
X123170000Y-76130000D01*
G75*
G02*
X123330000Y-76290000I0J-160000D01*
G01*
X123330000Y-76710000D01*
G75*
G02*
X123170000Y-76870000I-160000J0D01*
G01*
X122850000Y-76870000D01*
G75*
G02*
X122690000Y-76710000I0J160000D01*
G01*
G37*
G36*
G01*
X121670000Y-76710000D02*
X121670000Y-76290000D01*
G75*
G02*
X121830000Y-76130000I160000J0D01*
G01*
X122150000Y-76130000D01*
G75*
G02*
X122310000Y-76290000I0J-160000D01*
G01*
X122310000Y-76710000D01*
G75*
G02*
X122150000Y-76870000I-160000J0D01*
G01*
X121830000Y-76870000D01*
G75*
G02*
X121670000Y-76710000I0J160000D01*
G01*
G37*
%TD*%
%TO.C,D4*%
G36*
G01*
X120300000Y-76781250D02*
X120300000Y-76218750D01*
G75*
G02*
X120543750Y-75975000I243750J0D01*
G01*
X121031250Y-75975000D01*
G75*
G02*
X121275000Y-76218750I0J-243750D01*
G01*
X121275000Y-76781250D01*
G75*
G02*
X121031250Y-77025000I-243750J0D01*
G01*
X120543750Y-77025000D01*
G75*
G02*
X120300000Y-76781250I0J243750D01*
G01*
G37*
G36*
G01*
X118725000Y-76781250D02*
X118725000Y-76218750D01*
G75*
G02*
X118968750Y-75975000I243750J0D01*
G01*
X119456250Y-75975000D01*
G75*
G02*
X119700000Y-76218750I0J-243750D01*
G01*
X119700000Y-76781250D01*
G75*
G02*
X119456250Y-77025000I-243750J0D01*
G01*
X118968750Y-77025000D01*
G75*
G02*
X118725000Y-76781250I0J243750D01*
G01*
G37*
%TD*%
%TO.C,SW1*%
G36*
G01*
X113000000Y-88150000D02*
X109000000Y-88150000D01*
G75*
G02*
X108950000Y-88100000I0J50000D01*
G01*
X108950000Y-86900000D01*
G75*
G02*
X109000000Y-86850000I50000J0D01*
G01*
X113000000Y-86850000D01*
G75*
G02*
X113050000Y-86900000I0J-50000D01*
G01*
X113050000Y-88100000D01*
G75*
G02*
X113000000Y-88150000I-50000J0D01*
G01*
G37*
G36*
G01*
X113000000Y-83150000D02*
X109000000Y-83150000D01*
G75*
G02*
X108950000Y-83100000I0J50000D01*
G01*
X108950000Y-81900000D01*
G75*
G02*
X109000000Y-81850000I50000J0D01*
G01*
X113000000Y-81850000D01*
G75*
G02*
X113050000Y-81900000I0J-50000D01*
G01*
X113050000Y-83100000D01*
G75*
G02*
X113000000Y-83150000I-50000J0D01*
G01*
G37*
G36*
G01*
X131500000Y-88150000D02*
X127500000Y-88150000D01*
G75*
G02*
X127450000Y-88100000I0J50000D01*
G01*
X127450000Y-86900000D01*
G75*
G02*
X127500000Y-86850000I50000J0D01*
G01*
X131500000Y-86850000D01*
G75*
G02*
X131550000Y-86900000I0J-50000D01*
G01*
X131550000Y-88100000D01*
G75*
G02*
X131500000Y-88150000I-50000J0D01*
G01*
G37*
G36*
G01*
X131500000Y-85650000D02*
X127500000Y-85650000D01*
G75*
G02*
X127450000Y-85600000I0J50000D01*
G01*
X127450000Y-84400000D01*
G75*
G02*
X127500000Y-84350000I50000J0D01*
G01*
X131500000Y-84350000D01*
G75*
G02*
X131550000Y-84400000I0J-50000D01*
G01*
X131550000Y-85600000D01*
G75*
G02*
X131500000Y-85650000I-50000J0D01*
G01*
G37*
G36*
G01*
X131500000Y-83150000D02*
X127500000Y-83150000D01*
G75*
G02*
X127450000Y-83100000I0J50000D01*
G01*
X127450000Y-81900000D01*
G75*
G02*
X127500000Y-81850000I50000J0D01*
G01*
X131500000Y-81850000D01*
G75*
G02*
X131550000Y-81900000I0J-50000D01*
G01*
X131550000Y-83100000D01*
G75*
G02*
X131500000Y-83150000I-50000J0D01*
G01*
G37*
D12*
X120000000Y-90700000D03*
X120000000Y-79300000D03*
%TD*%
%TO.C,U1*%
G36*
G01*
X161450000Y-92200000D02*
X159950000Y-92200000D01*
G75*
G02*
X159900000Y-92150000I0J50000D01*
G01*
X159900000Y-90150000D01*
G75*
G02*
X159950000Y-90100000I50000J0D01*
G01*
X161450000Y-90100000D01*
G75*
G02*
X161500000Y-90150000I0J-50000D01*
G01*
X161500000Y-92150000D01*
G75*
G02*
X161450000Y-92200000I-50000J0D01*
G01*
G37*
G36*
G01*
X166050000Y-92200000D02*
X164550000Y-92200000D01*
G75*
G02*
X164500000Y-92150000I0J50000D01*
G01*
X164500000Y-90150000D01*
G75*
G02*
X164550000Y-90100000I50000J0D01*
G01*
X166050000Y-90100000D01*
G75*
G02*
X166100000Y-90150000I0J-50000D01*
G01*
X166100000Y-92150000D01*
G75*
G02*
X166050000Y-92200000I-50000J0D01*
G01*
G37*
G36*
G01*
X163750000Y-92200000D02*
X162250000Y-92200000D01*
G75*
G02*
X162200000Y-92150000I0J50000D01*
G01*
X162200000Y-90150000D01*
G75*
G02*
X162250000Y-90100000I50000J0D01*
G01*
X163750000Y-90100000D01*
G75*
G02*
X163800000Y-90150000I0J-50000D01*
G01*
X163800000Y-92150000D01*
G75*
G02*
X163750000Y-92200000I-50000J0D01*
G01*
G37*
G36*
G01*
X164900000Y-85900000D02*
X161100000Y-85900000D01*
G75*
G02*
X161050000Y-85850000I0J50000D01*
G01*
X161050000Y-83850000D01*
G75*
G02*
X161100000Y-83800000I50000J0D01*
G01*
X164900000Y-83800000D01*
G75*
G02*
X164950000Y-83850000I0J-50000D01*
G01*
X164950000Y-85850000D01*
G75*
G02*
X164900000Y-85900000I-50000J0D01*
G01*
G37*
%TD*%
%TO.C,R3*%
G36*
G01*
X169190000Y-87360000D02*
X169190000Y-86940000D01*
G75*
G02*
X169350000Y-86780000I160000J0D01*
G01*
X169670000Y-86780000D01*
G75*
G02*
X169830000Y-86940000I0J-160000D01*
G01*
X169830000Y-87360000D01*
G75*
G02*
X169670000Y-87520000I-160000J0D01*
G01*
X169350000Y-87520000D01*
G75*
G02*
X169190000Y-87360000I0J160000D01*
G01*
G37*
G36*
G01*
X168170000Y-87360000D02*
X168170000Y-86940000D01*
G75*
G02*
X168330000Y-86780000I160000J0D01*
G01*
X168650000Y-86780000D01*
G75*
G02*
X168810000Y-86940000I0J-160000D01*
G01*
X168810000Y-87360000D01*
G75*
G02*
X168650000Y-87520000I-160000J0D01*
G01*
X168330000Y-87520000D01*
G75*
G02*
X168170000Y-87360000I0J160000D01*
G01*
G37*
%TD*%
%TO.C,C3*%
G36*
G01*
X168850000Y-87905000D02*
X168850000Y-88295000D01*
G75*
G02*
X168685000Y-88460000I-165000J0D01*
G01*
X168355000Y-88460000D01*
G75*
G02*
X168190000Y-88295000I0J165000D01*
G01*
X168190000Y-87905000D01*
G75*
G02*
X168355000Y-87740000I165000J0D01*
G01*
X168685000Y-87740000D01*
G75*
G02*
X168850000Y-87905000I0J-165000D01*
G01*
G37*
G36*
G01*
X169810000Y-87905000D02*
X169810000Y-88295000D01*
G75*
G02*
X169645000Y-88460000I-165000J0D01*
G01*
X169315000Y-88460000D01*
G75*
G02*
X169150000Y-88295000I0J165000D01*
G01*
X169150000Y-87905000D01*
G75*
G02*
X169315000Y-87740000I165000J0D01*
G01*
X169645000Y-87740000D01*
G75*
G02*
X169810000Y-87905000I0J-165000D01*
G01*
G37*
%TD*%
%TO.C,R2*%
G36*
G01*
X188740000Y-82810000D02*
X188740000Y-82390000D01*
G75*
G02*
X188900000Y-82230000I160000J0D01*
G01*
X189220000Y-82230000D01*
G75*
G02*
X189380000Y-82390000I0J-160000D01*
G01*
X189380000Y-82810000D01*
G75*
G02*
X189220000Y-82970000I-160000J0D01*
G01*
X188900000Y-82970000D01*
G75*
G02*
X188740000Y-82810000I0J160000D01*
G01*
G37*
G36*
G01*
X187720000Y-82810000D02*
X187720000Y-82390000D01*
G75*
G02*
X187880000Y-82230000I160000J0D01*
G01*
X188200000Y-82230000D01*
G75*
G02*
X188360000Y-82390000I0J-160000D01*
G01*
X188360000Y-82810000D01*
G75*
G02*
X188200000Y-82970000I-160000J0D01*
G01*
X187880000Y-82970000D01*
G75*
G02*
X187720000Y-82810000I0J160000D01*
G01*
G37*
%TD*%
%TO.C,R1*%
G36*
G01*
X188740000Y-86610000D02*
X188740000Y-86190000D01*
G75*
G02*
X188900000Y-86030000I160000J0D01*
G01*
X189220000Y-86030000D01*
G75*
G02*
X189380000Y-86190000I0J-160000D01*
G01*
X189380000Y-86610000D01*
G75*
G02*
X189220000Y-86770000I-160000J0D01*
G01*
X188900000Y-86770000D01*
G75*
G02*
X188740000Y-86610000I0J160000D01*
G01*
G37*
G36*
G01*
X187720000Y-86610000D02*
X187720000Y-86190000D01*
G75*
G02*
X187880000Y-86030000I160000J0D01*
G01*
X188200000Y-86030000D01*
G75*
G02*
X188360000Y-86190000I0J-160000D01*
G01*
X188360000Y-86610000D01*
G75*
G02*
X188200000Y-86770000I-160000J0D01*
G01*
X187880000Y-86770000D01*
G75*
G02*
X187720000Y-86610000I0J160000D01*
G01*
G37*
%TD*%
%TO.C,J1*%
G36*
G01*
X192680000Y-82100000D02*
X191230000Y-82100000D01*
G75*
G02*
X191180000Y-82050000I0J50000D01*
G01*
X191180000Y-81450000D01*
G75*
G02*
X191230000Y-81400000I50000J0D01*
G01*
X192680000Y-81400000D01*
G75*
G02*
X192730000Y-81450000I0J-50000D01*
G01*
X192730000Y-82050000D01*
G75*
G02*
X192680000Y-82100000I-50000J0D01*
G01*
G37*
G36*
G01*
X192680000Y-82900000D02*
X191230000Y-82900000D01*
G75*
G02*
X191180000Y-82850000I0J50000D01*
G01*
X191180000Y-82250000D01*
G75*
G02*
X191230000Y-82200000I50000J0D01*
G01*
X192680000Y-82200000D01*
G75*
G02*
X192730000Y-82250000I0J-50000D01*
G01*
X192730000Y-82850000D01*
G75*
G02*
X192680000Y-82900000I-50000J0D01*
G01*
G37*
G36*
G01*
X192680000Y-87800000D02*
X191230000Y-87800000D01*
G75*
G02*
X191180000Y-87750000I0J50000D01*
G01*
X191180000Y-87150000D01*
G75*
G02*
X191230000Y-87100000I50000J0D01*
G01*
X192680000Y-87100000D01*
G75*
G02*
X192730000Y-87150000I0J-50000D01*
G01*
X192730000Y-87750000D01*
G75*
G02*
X192680000Y-87800000I-50000J0D01*
G01*
G37*
G36*
G01*
X192680000Y-88600000D02*
X191230000Y-88600000D01*
G75*
G02*
X191180000Y-88550000I0J50000D01*
G01*
X191180000Y-87950000D01*
G75*
G02*
X191230000Y-87900000I50000J0D01*
G01*
X192680000Y-87900000D01*
G75*
G02*
X192730000Y-87950000I0J-50000D01*
G01*
X192730000Y-88550000D01*
G75*
G02*
X192680000Y-88600000I-50000J0D01*
G01*
G37*
G36*
G01*
X192680000Y-88600000D02*
X191230000Y-88600000D01*
G75*
G02*
X191180000Y-88550000I0J50000D01*
G01*
X191180000Y-87950000D01*
G75*
G02*
X191230000Y-87900000I50000J0D01*
G01*
X192680000Y-87900000D01*
G75*
G02*
X192730000Y-87950000I0J-50000D01*
G01*
X192730000Y-88550000D01*
G75*
G02*
X192680000Y-88600000I-50000J0D01*
G01*
G37*
G36*
G01*
X192680000Y-87800000D02*
X191230000Y-87800000D01*
G75*
G02*
X191180000Y-87750000I0J50000D01*
G01*
X191180000Y-87150000D01*
G75*
G02*
X191230000Y-87100000I50000J0D01*
G01*
X192680000Y-87100000D01*
G75*
G02*
X192730000Y-87150000I0J-50000D01*
G01*
X192730000Y-87750000D01*
G75*
G02*
X192680000Y-87800000I-50000J0D01*
G01*
G37*
G36*
G01*
X192680000Y-82900000D02*
X191230000Y-82900000D01*
G75*
G02*
X191180000Y-82850000I0J50000D01*
G01*
X191180000Y-82250000D01*
G75*
G02*
X191230000Y-82200000I50000J0D01*
G01*
X192680000Y-82200000D01*
G75*
G02*
X192730000Y-82250000I0J-50000D01*
G01*
X192730000Y-82850000D01*
G75*
G02*
X192680000Y-82900000I-50000J0D01*
G01*
G37*
G36*
G01*
X192680000Y-82100000D02*
X191230000Y-82100000D01*
G75*
G02*
X191180000Y-82050000I0J50000D01*
G01*
X191180000Y-81450000D01*
G75*
G02*
X191230000Y-81400000I50000J0D01*
G01*
X192680000Y-81400000D01*
G75*
G02*
X192730000Y-81450000I0J-50000D01*
G01*
X192730000Y-82050000D01*
G75*
G02*
X192680000Y-82100000I-50000J0D01*
G01*
G37*
G36*
G01*
X192680000Y-86950000D02*
X191230000Y-86950000D01*
G75*
G02*
X191180000Y-86900000I0J50000D01*
G01*
X191180000Y-86600000D01*
G75*
G02*
X191230000Y-86550000I50000J0D01*
G01*
X192680000Y-86550000D01*
G75*
G02*
X192730000Y-86600000I0J-50000D01*
G01*
X192730000Y-86900000D01*
G75*
G02*
X192680000Y-86950000I-50000J0D01*
G01*
G37*
G36*
G01*
X192680000Y-86450000D02*
X191230000Y-86450000D01*
G75*
G02*
X191180000Y-86400000I0J50000D01*
G01*
X191180000Y-86100000D01*
G75*
G02*
X191230000Y-86050000I50000J0D01*
G01*
X192680000Y-86050000D01*
G75*
G02*
X192730000Y-86100000I0J-50000D01*
G01*
X192730000Y-86400000D01*
G75*
G02*
X192680000Y-86450000I-50000J0D01*
G01*
G37*
G36*
G01*
X192680000Y-85950000D02*
X191230000Y-85950000D01*
G75*
G02*
X191180000Y-85900000I0J50000D01*
G01*
X191180000Y-85600000D01*
G75*
G02*
X191230000Y-85550000I50000J0D01*
G01*
X192680000Y-85550000D01*
G75*
G02*
X192730000Y-85600000I0J-50000D01*
G01*
X192730000Y-85900000D01*
G75*
G02*
X192680000Y-85950000I-50000J0D01*
G01*
G37*
G36*
G01*
X192680000Y-84950000D02*
X191230000Y-84950000D01*
G75*
G02*
X191180000Y-84900000I0J50000D01*
G01*
X191180000Y-84600000D01*
G75*
G02*
X191230000Y-84550000I50000J0D01*
G01*
X192680000Y-84550000D01*
G75*
G02*
X192730000Y-84600000I0J-50000D01*
G01*
X192730000Y-84900000D01*
G75*
G02*
X192680000Y-84950000I-50000J0D01*
G01*
G37*
G36*
G01*
X192680000Y-84450000D02*
X191230000Y-84450000D01*
G75*
G02*
X191180000Y-84400000I0J50000D01*
G01*
X191180000Y-84100000D01*
G75*
G02*
X191230000Y-84050000I50000J0D01*
G01*
X192680000Y-84050000D01*
G75*
G02*
X192730000Y-84100000I0J-50000D01*
G01*
X192730000Y-84400000D01*
G75*
G02*
X192680000Y-84450000I-50000J0D01*
G01*
G37*
G36*
G01*
X192680000Y-83950000D02*
X191230000Y-83950000D01*
G75*
G02*
X191180000Y-83900000I0J50000D01*
G01*
X191180000Y-83600000D01*
G75*
G02*
X191230000Y-83550000I50000J0D01*
G01*
X192680000Y-83550000D01*
G75*
G02*
X192730000Y-83600000I0J-50000D01*
G01*
X192730000Y-83900000D01*
G75*
G02*
X192680000Y-83950000I-50000J0D01*
G01*
G37*
G36*
G01*
X192680000Y-83450000D02*
X191230000Y-83450000D01*
G75*
G02*
X191180000Y-83400000I0J50000D01*
G01*
X191180000Y-83100000D01*
G75*
G02*
X191230000Y-83050000I50000J0D01*
G01*
X192680000Y-83050000D01*
G75*
G02*
X192730000Y-83100000I0J-50000D01*
G01*
X192730000Y-83400000D01*
G75*
G02*
X192680000Y-83450000I-50000J0D01*
G01*
G37*
G36*
G01*
X192680000Y-85450000D02*
X191230000Y-85450000D01*
G75*
G02*
X191180000Y-85400000I0J50000D01*
G01*
X191180000Y-85100000D01*
G75*
G02*
X191230000Y-85050000I50000J0D01*
G01*
X192680000Y-85050000D01*
G75*
G02*
X192730000Y-85100000I0J-50000D01*
G01*
X192730000Y-85400000D01*
G75*
G02*
X192680000Y-85450000I-50000J0D01*
G01*
G37*
D13*
X192870000Y-80680000D03*
X192870000Y-89320000D03*
D14*
X193400000Y-87890000D03*
D15*
X197050000Y-89320000D03*
D14*
X193400000Y-82110000D03*
D15*
X197050000Y-80680000D03*
%TD*%
%TO.C,D3*%
G36*
G01*
X188700000Y-88000000D02*
X188700000Y-87300000D01*
G75*
G02*
X188750000Y-87250000I50000J0D01*
G01*
X189350000Y-87250000D01*
G75*
G02*
X189400000Y-87300000I0J-50000D01*
G01*
X189400000Y-88000000D01*
G75*
G02*
X189350000Y-88050000I-50000J0D01*
G01*
X188750000Y-88050000D01*
G75*
G02*
X188700000Y-88000000I0J50000D01*
G01*
G37*
G36*
G01*
X187300000Y-88000000D02*
X187300000Y-87300000D01*
G75*
G02*
X187350000Y-87250000I50000J0D01*
G01*
X187950000Y-87250000D01*
G75*
G02*
X188000000Y-87300000I0J-50000D01*
G01*
X188000000Y-88000000D01*
G75*
G02*
X187950000Y-88050000I-50000J0D01*
G01*
X187350000Y-88050000D01*
G75*
G02*
X187300000Y-88000000I0J50000D01*
G01*
G37*
%TD*%
%TO.C,D2*%
G36*
G01*
X188650000Y-84850000D02*
X189350000Y-84850000D01*
G75*
G02*
X189400000Y-84900000I0J-50000D01*
G01*
X189400000Y-85500000D01*
G75*
G02*
X189350000Y-85550000I-50000J0D01*
G01*
X188650000Y-85550000D01*
G75*
G02*
X188600000Y-85500000I0J50000D01*
G01*
X188600000Y-84900000D01*
G75*
G02*
X188650000Y-84850000I50000J0D01*
G01*
G37*
G36*
G01*
X188650000Y-83450000D02*
X189350000Y-83450000D01*
G75*
G02*
X189400000Y-83500000I0J-50000D01*
G01*
X189400000Y-84100000D01*
G75*
G02*
X189350000Y-84150000I-50000J0D01*
G01*
X188650000Y-84150000D01*
G75*
G02*
X188600000Y-84100000I0J50000D01*
G01*
X188600000Y-83500000D01*
G75*
G02*
X188650000Y-83450000I50000J0D01*
G01*
G37*
%TD*%
%TO.C,D1*%
G36*
G01*
X187850000Y-84150000D02*
X187150000Y-84150000D01*
G75*
G02*
X187100000Y-84100000I0J50000D01*
G01*
X187100000Y-83500000D01*
G75*
G02*
X187150000Y-83450000I50000J0D01*
G01*
X187850000Y-83450000D01*
G75*
G02*
X187900000Y-83500000I0J-50000D01*
G01*
X187900000Y-84100000D01*
G75*
G02*
X187850000Y-84150000I-50000J0D01*
G01*
G37*
G36*
G01*
X187850000Y-85550000D02*
X187150000Y-85550000D01*
G75*
G02*
X187100000Y-85500000I0J50000D01*
G01*
X187100000Y-84900000D01*
G75*
G02*
X187150000Y-84850000I50000J0D01*
G01*
X187850000Y-84850000D01*
G75*
G02*
X187900000Y-84900000I0J-50000D01*
G01*
X187900000Y-85500000D01*
G75*
G02*
X187850000Y-85550000I-50000J0D01*
G01*
G37*
%TD*%
M02*
