%TF.GenerationSoftware,KiCad,Pcbnew,(5.1.9-0-10_14)*%
%TF.CreationDate,2021-09-01T15:37:48+08:00*%
%TF.ProjectId,KNOB_MAIN,4b4e4f42-5f4d-4414-994e-2e6b69636164,V1.0*%
%TF.SameCoordinates,Original*%
%TF.FileFunction,Paste,Top*%
%TF.FilePolarity,Positive*%
%FSLAX46Y46*%
G04 Gerber Fmt 4.6, Leading zero omitted, Abs format (unit mm)*
G04 Created by KiCad (PCBNEW (5.1.9-0-10_14)) date 2021-09-01 15:37:48*
%MOMM*%
%LPD*%
G01*
G04 APERTURE LIST*
%ADD10R,1.060000X0.650000*%
%ADD11R,0.800000X0.400000*%
%ADD12R,0.400000X0.800000*%
%ADD13R,0.700000X0.700000*%
%ADD14R,1.450000X1.450000*%
%ADD15C,0.350000*%
%ADD16R,4.000000X1.200000*%
%ADD17R,1.450000X0.300000*%
%ADD18R,1.450000X0.600000*%
%ADD19R,0.600000X0.700000*%
%ADD20R,0.700000X0.600000*%
G04 APERTURE END LIST*
%TO.C,R6*%
G36*
G01*
X133240000Y-80985000D02*
X133240000Y-80615000D01*
G75*
G02*
X133375000Y-80480000I135000J0D01*
G01*
X133645000Y-80480000D01*
G75*
G02*
X133780000Y-80615000I0J-135000D01*
G01*
X133780000Y-80985000D01*
G75*
G02*
X133645000Y-81120000I-135000J0D01*
G01*
X133375000Y-81120000D01*
G75*
G02*
X133240000Y-80985000I0J135000D01*
G01*
G37*
G36*
G01*
X132220000Y-80985000D02*
X132220000Y-80615000D01*
G75*
G02*
X132355000Y-80480000I135000J0D01*
G01*
X132625000Y-80480000D01*
G75*
G02*
X132760000Y-80615000I0J-135000D01*
G01*
X132760000Y-80985000D01*
G75*
G02*
X132625000Y-81120000I-135000J0D01*
G01*
X132355000Y-81120000D01*
G75*
G02*
X132220000Y-80985000I0J135000D01*
G01*
G37*
%TD*%
%TO.C,D4*%
G36*
G01*
X129243750Y-78775000D02*
X129756250Y-78775000D01*
G75*
G02*
X129975000Y-78993750I0J-218750D01*
G01*
X129975000Y-79431250D01*
G75*
G02*
X129756250Y-79650000I-218750J0D01*
G01*
X129243750Y-79650000D01*
G75*
G02*
X129025000Y-79431250I0J218750D01*
G01*
X129025000Y-78993750D01*
G75*
G02*
X129243750Y-78775000I218750J0D01*
G01*
G37*
G36*
G01*
X129243750Y-80350000D02*
X129756250Y-80350000D01*
G75*
G02*
X129975000Y-80568750I0J-218750D01*
G01*
X129975000Y-81006250D01*
G75*
G02*
X129756250Y-81225000I-218750J0D01*
G01*
X129243750Y-81225000D01*
G75*
G02*
X129025000Y-81006250I0J218750D01*
G01*
X129025000Y-80568750D01*
G75*
G02*
X129243750Y-80350000I218750J0D01*
G01*
G37*
%TD*%
%TO.C,D5*%
G36*
G01*
X110743750Y-80350000D02*
X111256250Y-80350000D01*
G75*
G02*
X111475000Y-80568750I0J-218750D01*
G01*
X111475000Y-81006250D01*
G75*
G02*
X111256250Y-81225000I-218750J0D01*
G01*
X110743750Y-81225000D01*
G75*
G02*
X110525000Y-81006250I0J218750D01*
G01*
X110525000Y-80568750D01*
G75*
G02*
X110743750Y-80350000I218750J0D01*
G01*
G37*
G36*
G01*
X110743750Y-78775000D02*
X111256250Y-78775000D01*
G75*
G02*
X111475000Y-78993750I0J-218750D01*
G01*
X111475000Y-79431250D01*
G75*
G02*
X111256250Y-79650000I-218750J0D01*
G01*
X110743750Y-79650000D01*
G75*
G02*
X110525000Y-79431250I0J218750D01*
G01*
X110525000Y-78993750D01*
G75*
G02*
X110743750Y-78775000I218750J0D01*
G01*
G37*
%TD*%
%TO.C,C6*%
G36*
G01*
X168040000Y-90245000D02*
X168040000Y-89905000D01*
G75*
G02*
X168180000Y-89765000I140000J0D01*
G01*
X168460000Y-89765000D01*
G75*
G02*
X168600000Y-89905000I0J-140000D01*
G01*
X168600000Y-90245000D01*
G75*
G02*
X168460000Y-90385000I-140000J0D01*
G01*
X168180000Y-90385000D01*
G75*
G02*
X168040000Y-90245000I0J140000D01*
G01*
G37*
G36*
G01*
X169000000Y-90245000D02*
X169000000Y-89905000D01*
G75*
G02*
X169140000Y-89765000I140000J0D01*
G01*
X169420000Y-89765000D01*
G75*
G02*
X169560000Y-89905000I0J-140000D01*
G01*
X169560000Y-90245000D01*
G75*
G02*
X169420000Y-90385000I-140000J0D01*
G01*
X169140000Y-90385000D01*
G75*
G02*
X169000000Y-90245000I0J140000D01*
G01*
G37*
%TD*%
%TO.C,R5*%
G36*
G01*
X162575000Y-88200000D02*
X162025000Y-88200000D01*
G75*
G02*
X161825000Y-88000000I0J200000D01*
G01*
X161825000Y-87600000D01*
G75*
G02*
X162025000Y-87400000I200000J0D01*
G01*
X162575000Y-87400000D01*
G75*
G02*
X162775000Y-87600000I0J-200000D01*
G01*
X162775000Y-88000000D01*
G75*
G02*
X162575000Y-88200000I-200000J0D01*
G01*
G37*
G36*
G01*
X162575000Y-89850000D02*
X162025000Y-89850000D01*
G75*
G02*
X161825000Y-89650000I0J200000D01*
G01*
X161825000Y-89250000D01*
G75*
G02*
X162025000Y-89050000I200000J0D01*
G01*
X162575000Y-89050000D01*
G75*
G02*
X162775000Y-89250000I0J-200000D01*
G01*
X162775000Y-89650000D01*
G75*
G02*
X162575000Y-89850000I-200000J0D01*
G01*
G37*
%TD*%
%TO.C,R4*%
G36*
G01*
X169040000Y-87285000D02*
X169040000Y-86915000D01*
G75*
G02*
X169175000Y-86780000I135000J0D01*
G01*
X169445000Y-86780000D01*
G75*
G02*
X169580000Y-86915000I0J-135000D01*
G01*
X169580000Y-87285000D01*
G75*
G02*
X169445000Y-87420000I-135000J0D01*
G01*
X169175000Y-87420000D01*
G75*
G02*
X169040000Y-87285000I0J135000D01*
G01*
G37*
G36*
G01*
X168020000Y-87285000D02*
X168020000Y-86915000D01*
G75*
G02*
X168155000Y-86780000I135000J0D01*
G01*
X168425000Y-86780000D01*
G75*
G02*
X168560000Y-86915000I0J-135000D01*
G01*
X168560000Y-87285000D01*
G75*
G02*
X168425000Y-87420000I-135000J0D01*
G01*
X168155000Y-87420000D01*
G75*
G02*
X168020000Y-87285000I0J135000D01*
G01*
G37*
%TD*%
D10*
%TO.C,U1*%
X166050000Y-87675000D03*
X166050000Y-89575000D03*
X163850000Y-89575000D03*
X163850000Y-88625000D03*
X163850000Y-87675000D03*
%TD*%
%TO.C,C5*%
G36*
G01*
X168225000Y-85400000D02*
X168225000Y-85900000D01*
G75*
G02*
X168000000Y-86125000I-225000J0D01*
G01*
X167550000Y-86125000D01*
G75*
G02*
X167325000Y-85900000I0J225000D01*
G01*
X167325000Y-85400000D01*
G75*
G02*
X167550000Y-85175000I225000J0D01*
G01*
X168000000Y-85175000D01*
G75*
G02*
X168225000Y-85400000I0J-225000D01*
G01*
G37*
G36*
G01*
X169775000Y-85400000D02*
X169775000Y-85900000D01*
G75*
G02*
X169550000Y-86125000I-225000J0D01*
G01*
X169100000Y-86125000D01*
G75*
G02*
X168875000Y-85900000I0J225000D01*
G01*
X168875000Y-85400000D01*
G75*
G02*
X169100000Y-85175000I225000J0D01*
G01*
X169550000Y-85175000D01*
G75*
G02*
X169775000Y-85400000I0J-225000D01*
G01*
G37*
%TD*%
%TO.C,C4*%
G36*
G01*
X168225000Y-83850000D02*
X168225000Y-84350000D01*
G75*
G02*
X168000000Y-84575000I-225000J0D01*
G01*
X167550000Y-84575000D01*
G75*
G02*
X167325000Y-84350000I0J225000D01*
G01*
X167325000Y-83850000D01*
G75*
G02*
X167550000Y-83625000I225000J0D01*
G01*
X168000000Y-83625000D01*
G75*
G02*
X168225000Y-83850000I0J-225000D01*
G01*
G37*
G36*
G01*
X169775000Y-83850000D02*
X169775000Y-84350000D01*
G75*
G02*
X169550000Y-84575000I-225000J0D01*
G01*
X169100000Y-84575000D01*
G75*
G02*
X168875000Y-84350000I0J225000D01*
G01*
X168875000Y-83850000D01*
G75*
G02*
X169100000Y-83625000I225000J0D01*
G01*
X169550000Y-83625000D01*
G75*
G02*
X169775000Y-83850000I0J-225000D01*
G01*
G37*
%TD*%
%TO.C,C2*%
G36*
G01*
X166450000Y-84624999D02*
X165500000Y-84624999D01*
G75*
G02*
X165250000Y-84374999I0J250000D01*
G01*
X165250000Y-83874999D01*
G75*
G02*
X165500000Y-83624999I250000J0D01*
G01*
X166450000Y-83624999D01*
G75*
G02*
X166700000Y-83874999I0J-250000D01*
G01*
X166700000Y-84374999D01*
G75*
G02*
X166450000Y-84624999I-250000J0D01*
G01*
G37*
G36*
G01*
X166450000Y-86524999D02*
X165500000Y-86524999D01*
G75*
G02*
X165250000Y-86274999I0J250000D01*
G01*
X165250000Y-85774999D01*
G75*
G02*
X165500000Y-85524999I250000J0D01*
G01*
X166450000Y-85524999D01*
G75*
G02*
X166700000Y-85774999I0J-250000D01*
G01*
X166700000Y-86274999D01*
G75*
G02*
X166450000Y-86524999I-250000J0D01*
G01*
G37*
%TD*%
%TO.C,C1*%
G36*
G01*
X164400000Y-84624999D02*
X163450000Y-84624999D01*
G75*
G02*
X163200000Y-84374999I0J250000D01*
G01*
X163200000Y-83874999D01*
G75*
G02*
X163450000Y-83624999I250000J0D01*
G01*
X164400000Y-83624999D01*
G75*
G02*
X164650000Y-83874999I0J-250000D01*
G01*
X164650000Y-84374999D01*
G75*
G02*
X164400000Y-84624999I-250000J0D01*
G01*
G37*
G36*
G01*
X164400000Y-86524999D02*
X163450000Y-86524999D01*
G75*
G02*
X163200000Y-86274999I0J250000D01*
G01*
X163200000Y-85774999D01*
G75*
G02*
X163450000Y-85524999I250000J0D01*
G01*
X164400000Y-85524999D01*
G75*
G02*
X164650000Y-85774999I0J-250000D01*
G01*
X164650000Y-86274999D01*
G75*
G02*
X164400000Y-86524999I-250000J0D01*
G01*
G37*
%TD*%
D11*
%TO.C,U2*%
X171600000Y-82500000D03*
X171600000Y-83300000D03*
X171600000Y-84100000D03*
X171600000Y-84900000D03*
X171600000Y-85700000D03*
X171600000Y-86500000D03*
X171600000Y-87300000D03*
X171600000Y-88100000D03*
X171600000Y-88900000D03*
X171600000Y-89700000D03*
X171600000Y-90500000D03*
D12*
X172700000Y-91400000D03*
X173500000Y-91400000D03*
X174300000Y-91400000D03*
X175100000Y-91400000D03*
X175900000Y-91400000D03*
X176700000Y-91400000D03*
X177500000Y-91400000D03*
X178300000Y-91400000D03*
X179100000Y-91400000D03*
X179900000Y-91400000D03*
X180700000Y-91400000D03*
X181500000Y-91400000D03*
X182300000Y-91400000D03*
D11*
X183400000Y-90500000D03*
X183400000Y-89700000D03*
X183400000Y-88900000D03*
X183400000Y-88100000D03*
X183400000Y-87300000D03*
X183400000Y-86500000D03*
X183400000Y-85700000D03*
X183400000Y-84900000D03*
X183400000Y-84100000D03*
X183400000Y-83300000D03*
X183400000Y-82500000D03*
D12*
X179100000Y-81600000D03*
D13*
X183450000Y-91450000D03*
D12*
X179900000Y-81600000D03*
D14*
X177500000Y-88475000D03*
D12*
X175900000Y-81600000D03*
X174300000Y-81600000D03*
D13*
X183450000Y-81550000D03*
D12*
X177500000Y-81600000D03*
D13*
X171550000Y-81550000D03*
D12*
X173500000Y-81600000D03*
X175100000Y-81600000D03*
D14*
X177500000Y-86500000D03*
D12*
X172700000Y-81600000D03*
X182300000Y-81600000D03*
D14*
X179475000Y-84525000D03*
D12*
X178300000Y-81600000D03*
X181500000Y-81600000D03*
D14*
X175525000Y-88475000D03*
D15*
G36*
X176250000Y-85250000D02*
G01*
X174800000Y-85250000D01*
X174800000Y-84400000D01*
X175400000Y-83800000D01*
X176250000Y-83800000D01*
X176250000Y-85250000D01*
G37*
D14*
X179475000Y-88475000D03*
D12*
X180700000Y-81600000D03*
D14*
X179475000Y-86500000D03*
X175525000Y-86550000D03*
D13*
X171550000Y-91450000D03*
D12*
X176700000Y-81600000D03*
D14*
X177500000Y-84525000D03*
%TD*%
D16*
%TO.C,SW1*%
X129500000Y-82500000D03*
X129500000Y-85000000D03*
X129500000Y-87500000D03*
X111000000Y-82500000D03*
X111000000Y-87500000D03*
%TD*%
%TO.C,R3*%
G36*
G01*
X169040000Y-88285000D02*
X169040000Y-87915000D01*
G75*
G02*
X169175000Y-87780000I135000J0D01*
G01*
X169445000Y-87780000D01*
G75*
G02*
X169580000Y-87915000I0J-135000D01*
G01*
X169580000Y-88285000D01*
G75*
G02*
X169445000Y-88420000I-135000J0D01*
G01*
X169175000Y-88420000D01*
G75*
G02*
X169040000Y-88285000I0J135000D01*
G01*
G37*
G36*
G01*
X168020000Y-88285000D02*
X168020000Y-87915000D01*
G75*
G02*
X168155000Y-87780000I135000J0D01*
G01*
X168425000Y-87780000D01*
G75*
G02*
X168560000Y-87915000I0J-135000D01*
G01*
X168560000Y-88285000D01*
G75*
G02*
X168425000Y-88420000I-135000J0D01*
G01*
X168155000Y-88420000D01*
G75*
G02*
X168020000Y-88285000I0J135000D01*
G01*
G37*
%TD*%
%TO.C,C3*%
G36*
G01*
X168600000Y-88930000D02*
X168600000Y-89270000D01*
G75*
G02*
X168460000Y-89410000I-140000J0D01*
G01*
X168180000Y-89410000D01*
G75*
G02*
X168040000Y-89270000I0J140000D01*
G01*
X168040000Y-88930000D01*
G75*
G02*
X168180000Y-88790000I140000J0D01*
G01*
X168460000Y-88790000D01*
G75*
G02*
X168600000Y-88930000I0J-140000D01*
G01*
G37*
G36*
G01*
X169560000Y-88930000D02*
X169560000Y-89270000D01*
G75*
G02*
X169420000Y-89410000I-140000J0D01*
G01*
X169140000Y-89410000D01*
G75*
G02*
X169000000Y-89270000I0J140000D01*
G01*
X169000000Y-88930000D01*
G75*
G02*
X169140000Y-88790000I140000J0D01*
G01*
X169420000Y-88790000D01*
G75*
G02*
X169560000Y-88930000I0J-140000D01*
G01*
G37*
%TD*%
%TO.C,R2*%
G36*
G01*
X188790000Y-82785000D02*
X188790000Y-82415000D01*
G75*
G02*
X188925000Y-82280000I135000J0D01*
G01*
X189195000Y-82280000D01*
G75*
G02*
X189330000Y-82415000I0J-135000D01*
G01*
X189330000Y-82785000D01*
G75*
G02*
X189195000Y-82920000I-135000J0D01*
G01*
X188925000Y-82920000D01*
G75*
G02*
X188790000Y-82785000I0J135000D01*
G01*
G37*
G36*
G01*
X187770000Y-82785000D02*
X187770000Y-82415000D01*
G75*
G02*
X187905000Y-82280000I135000J0D01*
G01*
X188175000Y-82280000D01*
G75*
G02*
X188310000Y-82415000I0J-135000D01*
G01*
X188310000Y-82785000D01*
G75*
G02*
X188175000Y-82920000I-135000J0D01*
G01*
X187905000Y-82920000D01*
G75*
G02*
X187770000Y-82785000I0J135000D01*
G01*
G37*
%TD*%
%TO.C,R1*%
G36*
G01*
X188790000Y-86585000D02*
X188790000Y-86215000D01*
G75*
G02*
X188925000Y-86080000I135000J0D01*
G01*
X189195000Y-86080000D01*
G75*
G02*
X189330000Y-86215000I0J-135000D01*
G01*
X189330000Y-86585000D01*
G75*
G02*
X189195000Y-86720000I-135000J0D01*
G01*
X188925000Y-86720000D01*
G75*
G02*
X188790000Y-86585000I0J135000D01*
G01*
G37*
G36*
G01*
X187770000Y-86585000D02*
X187770000Y-86215000D01*
G75*
G02*
X187905000Y-86080000I135000J0D01*
G01*
X188175000Y-86080000D01*
G75*
G02*
X188310000Y-86215000I0J-135000D01*
G01*
X188310000Y-86585000D01*
G75*
G02*
X188175000Y-86720000I-135000J0D01*
G01*
X187905000Y-86720000D01*
G75*
G02*
X187770000Y-86585000I0J135000D01*
G01*
G37*
%TD*%
D17*
%TO.C,J1*%
X191955000Y-85250000D03*
X191955000Y-83250000D03*
X191955000Y-83750000D03*
X191955000Y-84250000D03*
X191955000Y-84750000D03*
X191955000Y-85750000D03*
X191955000Y-86250000D03*
X191955000Y-86750000D03*
D18*
X191955000Y-81750000D03*
X191955000Y-82550000D03*
X191955000Y-87450000D03*
X191955000Y-88250000D03*
X191955000Y-88250000D03*
X191955000Y-87450000D03*
X191955000Y-82550000D03*
X191955000Y-81750000D03*
%TD*%
D19*
%TO.C,D3*%
X189050000Y-87650000D03*
X187650000Y-87650000D03*
%TD*%
D20*
%TO.C,D2*%
X189000000Y-83800000D03*
X189000000Y-85200000D03*
%TD*%
%TO.C,D1*%
X187500000Y-83800000D03*
X187500000Y-85200000D03*
%TD*%
M02*
