%TF.GenerationSoftware,KiCad,Pcbnew,(5.1.9-0-10_14)*%
%TF.CreationDate,2021-09-01T15:37:48+08:00*%
%TF.ProjectId,KNOB_MAIN,4b4e4f42-5f4d-4414-994e-2e6b69636164,V1.0*%
%TF.SameCoordinates,Original*%
%TF.FileFunction,Profile,NP*%
%FSLAX46Y46*%
G04 Gerber Fmt 4.6, Leading zero omitted, Abs format (unit mm)*
G04 Created by KiCad (PCBNEW (5.1.9-0-10_14)) date 2021-09-01 15:37:48*
%MOMM*%
%LPD*%
G01*
G04 APERTURE LIST*
%TA.AperFunction,Profile*%
%ADD10C,0.050000*%
%TD*%
G04 APERTURE END LIST*
D10*
X165000000Y-78500000D02*
G75*
G02*
X163500000Y-80000000I-1500000J0D01*
G01*
X165000000Y-76500000D02*
G75*
G02*
X166500000Y-75000000I1500000J0D01*
G01*
X136500000Y-80000000D02*
G75*
G02*
X135000000Y-78500000I0J1500000D01*
G01*
X133500000Y-75000000D02*
G75*
G02*
X135000000Y-76500000I0J-1500000D01*
G01*
X166500000Y-75000000D02*
X192000000Y-75000000D01*
X165000000Y-78500000D02*
X165000000Y-76500000D01*
X135000000Y-78500000D02*
X135000000Y-76500000D01*
X136500000Y-80000000D02*
X163500000Y-80000000D01*
X193000000Y-73500000D02*
X193000000Y-74000000D01*
X107000000Y-73500000D02*
X107000000Y-74000000D01*
X108000000Y-75000000D02*
G75*
G02*
X107000000Y-74000000I0J1000000D01*
G01*
X193000000Y-74000000D02*
G75*
G02*
X192000000Y-75000000I-1000000J0D01*
G01*
X193000000Y-73500000D02*
G75*
G02*
X200000000Y-73500000I3500000J0D01*
G01*
X200000000Y-96500000D02*
G75*
G02*
X196500000Y-100000000I-3500000J0D01*
G01*
X103500000Y-100000000D02*
G75*
G02*
X100000000Y-96500000I0J3500000D01*
G01*
X100000000Y-73500000D02*
G75*
G02*
X107000000Y-73500000I3500000J0D01*
G01*
X133500000Y-75000000D02*
X108000000Y-75000000D01*
X200000000Y-96500000D02*
X200000000Y-73500000D01*
X103500000Y-100000000D02*
X196500000Y-100000000D01*
X100000000Y-73500000D02*
X100000000Y-96500000D01*
M02*
